<mxfile host="app.diagrams.net" modified="2021-03-12T17:34:08.491Z" agent="5.0 (Windows NT 10.0; Win64; x64) AppleWebKit/537.36 (KHTML, like Gecko) Chrome/88.0.4324.190 Safari/537.36" etag="qfMFCjkN8YQUhMlPriyj" version="14.4.2" type="github">
  <diagram id="4NqK2MAm6521fWSvvZj8" name="第 1 页">
    <mxGraphModel dx="1422" dy="800" grid="1" gridSize="10" guides="1" tooltips="1" connect="1" arrows="1" fold="1" page="1" pageScale="1" pageWidth="827" pageHeight="1169" math="0" shadow="0">
      <root>
        <mxCell id="0" />
        <mxCell id="1" parent="0" />
        <mxCell id="TpyHItLFZVQ0e0Jz64Gf-1" value="" style="shape=image;verticalLabelPosition=bottom;labelBackgroundColor=#ffffff;verticalAlign=top;aspect=fixed;imageAspect=0;image=data:image/png,iVBORw0KGgoAAAANSUhEUgAAA5MAAAIgCAYAAAAYxj3mAAAgAElEQVR4AeydiZ9kVX3286dFlplhE9EB3GXkBdFX4XWLGMQYCEQNCiauJIqKS4xRTBATFEW6qtfpZXpmeqb3fam9q6u7q7vW5/38Cs9QU1173eX8bj31+Qyn6i7nPPf53vMbnrm3bv0V+KIDdIAO0AE6QAfoAB2gA3SADtABOtChA3/V4fbcnA7QATpAB+gAHaADdIAO0AE6QAfoABgmeRLQATpAB+gAHaADdIAO0AE6QAfoQMcOMEx2bBl3oAN0gA7QATpAB+gAHaADdIAO0AHfwmQ+n8f6+jr/0AOeAzwHeA7wHOA5wHOA5wDPAZ4DPAd4Dvh0Dkgu6/blW5iUIHn27Fn+oQc8B3gO8BzgOcBzgOcAzwGeAzwHeA7wHPDpHJBc1u3L9zD50EMP4dlnn8V3vvMd/lHigfD6xje+QV7kxXPAhXOA80vP3wVPPvkkHnjgATz++OP45je/yfngwnxw+v8NOL/0zC9hT17k5XQNYH9vnVMyvySHycU91WHyy1/+MhKJRLdhmPv54IDwSqfTPozMIbtxgLy6cc2/fcjLP+87HXliYgJf+tKX8Nprr+Ho6KjT3bm9Dw5wfvlgeg9DklcP5vmwK3n5YHoPQwovyWEMkz2YyF27c4DFojvf/NqLvPxyvrtxyas73/zYi2HSD9d7G5Pzqzf/vN6bvLx2vLfxyKs3/7zeW3gxTHrtOserOMBioetEIC/y0uWAHrUMk3pYGaWsh8YJHS156eBkVJKXcUJHK7wYJnWwCpxKFgtdSMmLvHQ5oEctw6QeVkYp66FxQkdLXjo4GZXkZZzQ0QovhkkdrAKnksVCF1LyIi9dDuhRyzCph5VRynponNDRkpcOTkZlsVhEqVQyH9la7oDML4ZJyyEFVR6Luy6y5EVeuhzQo5ZhUg8ro5T10DihoyUvHZyMSoZJ44SOVuYXw6QOVoFTyeKuCyl5kZcuB/SoZZjUw8ooZT00Tuho3eQ1Pj6OXv/ocNE7lQyT3nntxEgyvxgmnXCSfXTsgJvFvWMx3KGlA+TV0iKrNiAvq3A0FcMw2dQeK1dyflmJpaEoN3lJkOzl1ev+vYxt674Mk7aSqa9L5hfDZH1vuNRlB9ws7i5L78vuyUsXdvLSw4thUg8ro5Tzyziho3WTlwmDyYG/Rqd/xD2zvw4nvVHJMOmNz06NIvOLYdIpN9lPRw64Wdw7EsKN23KAvNqyyZqNyMsaFC2FMEy2tMi6DTi/rEPSVJCbvEwY7DRIyvbyMvvXO4BXXnkFjzzyCNLpdL3VkPXPP/98ZZ1s89hjj2FlZeXatq32v7ZhF2+Oj4/x3HPPXTdedTeiQ/Q00l69rXlv9kkmk5UH8JjPtX3I8hdffNHsdq2t9kMWyn7inyxv9yV+Pv3005Djq/eS9aa/evpa7V+vz3aXyXjieSNttcffTr9TU1PXHW+rz/X6lPnFMFnPGS5z3QE3i7vr4vtwAPLSBZ289PBimNTDyijl/DJO6Gjd5GXCoJNhUv6H/uzZs5Xg0CiQ1YZHCTGyn7za2b9XcjKGBDoZtzbctAqazcaWfr/3ve9de5qrfJYx5CX9StCTcSU4SVCU9fKqDlpmO1kv25vwV9mwwX9kG/G8WRisDo+1x9jO/g2GbnuxHPevfvWrusdTffxtd/iXDUV7tUetPtf2L/OLYbLWFX72xAE3i7snB9Bng5CXLuDkpYcXw6QeVkYp55dxQkfrJi83wqRxtTq8mGWmlRBlrqA1ChLN9pd+akOD6btVK0FKQpcEWunDBDqzX3UANMvabaXvZ599FktLS5VdakObLJQxa6/Yip5aHbKtLJft231V+1q7j/Qj/cmr0TE221/2a6Szdqzaz8JSwmS199XbdNuv9CEc5VyStp3P1ePKe5lfDJO1rvCzJw64Wdw9OYA+G4S8dAEnLz28GCb1sDJKOb+MEzpaN3k1CpP1nKm9einbmP3rbd8sDFaHh0bBptn+Mp6Eo0ZBS/qXK3Xyx4RWo7F6v9og0qpfWS+6zp07dy38iX75LMvlJVcmJycnK+/lP9XHagJd9bj1AqfZWfZtdIxmm+q2URisHaPag3b2N9tUH4tZJq30Lz4bz2U786odu5Z37XqzX3UreqsDuPRvuNbu3+pzdb/yXuYXw2StK/zsiQNuFndPDqDPBiEvXcDJSw8vhkk9rIxSzi/jhI7WTV4mDNYGxXY+i3tm/3pONgqDtcsbBZva7WrHaLRf7XL5bMJNdYgz/VWvl2WNApPZXloT2qS/2u9evvzyy/jtb397bfNaPddW/OVNPU1mG9Ei+7f7MrokUFW/apc3Osba7ar7kPeN9qtdXq1b+pTP5iXaJAjKcnk1O36zj7SmTzkvar97WW9807/Zt/pzdb8yvxgmqx3he88ccLO4e3YQfTQQeemCTV56eDFM6mFllHJ+GSd0tG7yMmGwnfBYu424Z/av52SjMNhueKu3vwQPuUJlroCZ1ly1MkHFLDetuYpVT2f1stqrWrJOgorppzoUmeW1YU9qolydNK/aMGWWm7ZeODLrZIzq/muPvzYgyed6x1rdT71jNOPV21/0yZVX44FpzTi1msz6aq9M//Xa2uOv7c8co1lefRXY9CceVfvU6rPZT1qZXwyT1Y7wvWcOuFncPTuIPhqIvHTBJi89vBgm9bAySjm/jBM6Wjd5mTBYGxTb+Szumf3rOdkoDNZ7amt1EDB91dvfrJO2NjDIMhMmTQCp3r7d9xKC2tlftpPgVKvdtiuT9XxsdIz1wmS1b/X2k5BXy7R6n1bvZX8JptI2ezULk7W6Wn2uHkfmF8NktSN875kDbhZ3zw6ijwYiL12wyUsPL4ZJPayMUs4v44SO1k1eJgy2Ex5rtxH3zP71nKwXYuqFFQlj8j//ta96+1dvUy9MynpZbq6ayWcZs51waPoWLbUB0awzrTmOSCRyIkjJVcnq21xb9dcsjLXa1+gxrdElodq86vnbqN96+5t+pJX96nkpy+WPeb3++uvXvkNqljVqmx1/9T5Gc63G2n9AaPW5uk95L/OLYbLWFX72xAE3i7snB9Bng5CXLuDkpYcXw6QeVkYp55dxQkfrJq9mYbAdd5rtXy8MmkBQ3bdsV/sdOFlfb//q/RqFSdlGxun0dkvTt4SV6mBklptW1lffaik6qm+zbfU0V9NPdSvjNQpprYJtdT+tgpbZttEx1u5vtjdtI50mwBnPO9EsfTfqt3pc8w8EZizDSMJo9ZXNVp9Nn6aV+cUwadxg66kDbhZ3Tw+kTwYjL12gyUsPL4ZJPayMUs4v44SO1k1eEgZ7/dOui83CYasw0e4YTmwnYaX2oTrt9ithrNHvTDbro1GgbrZPO+sahcNejrGdcTvdppfjr/1HhVafa7XJ/GKYrHWFnz1xwM3i7skB9Nkg5KULOHnp4cUwqYeVUcr5ZZzQ0QaFl/xPvrmaVOt8u7c61u7n1udmwbfRmGafZDKJUqnU8spqbT/N/Kndtt3P4rf0W+9l9Ir3Nry6Of7asNzqc73jlPnFMFnPGS5z3YGgFHfXjbJkAPKyBESbMsirTaMs2Ixh0gIIHUrg/OrQMJ83Jy+fAXQ4fLFYrITJDnfj5j45IPOLYdIn8/t9WBZ3XWcAeZGXLgf0qGWY1MPKKGU9NE7oaMlLByejkmHSOKGjlfnFMKmDVeBUsrjrQkpe5KXLAT1qGSb1sDJKWQ+NEzpa8tLByagkL+OEjlZ4MUzqYBU4lSwWupCSF3npckCPWoZJPayMUtZD44SOlrx0cDIqycs4oaMVXgyTOlgFTiWLhS6k5EVeuhzQo5ZhUg8ro5T10DihoyUvHZyMSvIyTuhohRfDpA5WgVPJYqELKXmRly4H9KhlmNTDyihlPTRO6GjJSwcno5K8jBM6WuHFMKmDVeBUsljoQkpe5KXLAT1qGSb1sDJKWQ+NEzpa8tLByagkL+OEjlZ4MUzqYBU4lSwWupCSF3npckCPWoZJPayMUtZD44SOlrx0cDIqycs4oaMVXgyTOlgFTiWLhS6k5EVeuhzQo5ZhUg8ro5T10DihoyUvHZyMSvIyTuhohRfDpA5WgVPJYqELKXmRly4H9KhlmNTDyihlPTRO6GjJSwcno5K8jBM6WuHFMKmDVeBUsljoQkpe5KXLAT1qGSb1sDJKWQ+NEzpa8tLByagkL+OEjlZ4MUzqYBU4lSwWupCSF3npckCPWoZJPayMUtZD44SOlrx0cDIqycs4oaMVXgyTOlgFTiWLhS6k5EVeuhzQo5ZhUg8ro5T10DihoyUvHZyMSvIyTuhohRfDpA5WgVPJYqELKXmRly4H9KhlmNTDyihlPTRO6GjJSwcno5K8jBM6WuHFMKmDVeBUsljoQkpe5KXLAT1qGSb1sDJKWQ+NEzpa8tLByagkL+OEjlZ4MUzqYBU4lSwWupCSF3npckCPWoZJPayMUtZD44SOlrx0cDIqycs4oaMVXgyTOlgFTiWLhS6k5EVeuhzQo5ZhUg8ro5T10DihoyUvHZyMSvIyTuhohRfDpA5WgVPJYqELKXmRly4H9KhlmNTDyihlPTRO6GjJSwcno5K8jBM6WuHFMKmDVeBUsljoQkpe5KXLAT1qGSb1sDJKWQ+NEzpa8tLByagkL+OEjlZ4MUzqYBU4lSwWupCSF3npckCPWoZJPayMUtZD44SOlrx0cDIqycs4oaMVXgyTOlgFTiWLhS6k5EVeuhzQo5ZhUg8ro5T10DihoyUvHZyMSvIyTuhohRfDpA5WgVPJYqELKXmRly4H9KhlmNTDyihlPTRO6GjJSwcno5K8jBM6WuHFMKmDVeBUsljoQkpe5KXLAT1qGSb1sDJKWQ+NEzpa8tLByagkL+OEjlZ4MUzqYBU4lSwWupCSF3npckCPWoZJPayMUtZD44SOlrx0cDIqycs4oaMVXgyTOlgFTiWLhS6k5EVeuhzQo5ZhUg8ro5T10DihoyUvHZyMSvIyTuhohRfDpA5WgVPJYqELKXmRly4H9KhlmNTDyihlPTRO6GjJSwcno5K8jBM6WuHFMKmDVeBUsljoQkpe5KXLAT1qGSb1sDJKWQ+NEzpa8tLByagkL+OEjlZ4MUzqYBU4lSwWupCSF3npckCPWoZJPayMUtZD44SOlrx0cDIqycs4oaMVXgyTOlgFTiWLhS6k5EVeuhzQo5ZhUg8ro5T10DihoyUvHZyMSvIyTuhohRfDpA5WgVPJYqELKXmRly4H9KhlmNTDyihlPTRO6GjJSwcno5K8jBM6WuHFMKmDVeBUsljoQkpe5KXLAT1qGSb1sDJKWQ+NEzpa8tLByagkL+OEjlZ4MUzqYBU4lSwWupCSF3npckCPWoZJPayMUtZD44SOlrx0cDIqycs4oaMVXgyTOlgFTiWLhS6k5EVeuhzQo5ZhUg8ro5T10DihoyUvHZyMSvIyTuhohRfDpA5WgVPJYqELKXmRly4H9KhlmNTDyihlPTRO6GjJSwcno5K8jBM6WuHFMKmDVeBUsljoQkpe5KXLAT1qGSb1sDJKWQ+NEzpa8tLByagkL+OEjlZ4MUzqYBU4lSwWupCSF3npckCPWoZJPayMUtZD44SOlrx0cDIqycs4oaMVXgyTOlgFTiWLhS6k5EVeuhzQo5ZhUg8ro5T10DihoyUvHZyMSvIyTuhohRfDpA5WgVPJYqELKXmRly4H9KhlmNTDyihlPTRO6GjJSwcno5K8jBM6WuHFMKmDVeBUsljoQkpe5KXLAT1qGSb1sDJKWQ+NEzpa8tLByagkL+OEjlZ4MUzqYBU4lSwWupCSF3npckCPWoZJPayMUtZD44SOlrx0cDIqycs4oaMVXgyTOlgFTiWLhS6k5EVeuhzQo5ZhUg8ro5T10DihoyUvHZyMSvIyTuhohRfDpA5WgVPJYqELKXmRly4H9KhlmNTDyihlPTRO6GjJSwcno5K8jBM6WuHFMKmDVeBUsljoQkpe5KXLAT1qGSb1sDJKWQ+NEzpa8tLByagkL+OEjlZ4MUzqYBU4lSwWupCSF3npckCPWoZJPayMUtZD44SOlrx0cDIqycs4oaMVXgyTOlgFTiWLhS6k5EVeuhzQo5ZhUg8ro5T10DihoyUvHZyMSvIyTuhohRfDpA5WgVPJYqELKXmRly4H9KhlmNTDyihlPTRO6GjJSwcno5K8jBM6WuHFMKmDVeBUsljoQkpe5KXLAT1qGSb1sDJKWQ+NEzpa8tLByagkL+OEjlZ4MUzqYBU4lSwWupCSF3npckCPWoZJPayMUtZD44SOlrx0cDIqycs4oaMVXgyTOlgFTiWLhS6k5EVeuhzQo5ZhUg8ro5T10DihoyUvHZyMSvIyTuhohRfDpA5WgVPJYqELKXmRly4H9KidmprCE088gddeew1HR0d6hPexUtZDXfDJi7x0OaBLrcwvhkldzAKjlsVdF0ryIi9dDuhROzc3h2effZZhUg8ysB4qggWQly5c5KWQF8OkMmhBkcu/jHWRJC/y0uWAHrUMk3pYGaWsh8YJHS156eBkVJKXcUJHK7wYJnWwCpxKFgtdSMmLvHQ5oEctw6QeVkYp66FxQkdLXjo4GZXkZZzQ0QovhkkdrAKnksVCF1LyIi9dDuhRyzCph5VRynponNDRkpcOTkYleRkndLTCi2FSB6vAqWSx0IWUvMhLlwN61DJM6mFllLIeGid0tOSlg5NRSV7GCR2t8GKY1MEqcCpZLHQhJS/y0uWAHrUMk3pYGaWsh8YJHS156eBkVJKXcUJHK7wYJnWwCpxKFgtdSMmLvHQ5oEctw6QeVkYp66FxQkdLXjo4GZXkZZzQ0QovhkkdrAKnksVCF1LyIi9dDuhRyzCph5VRynponNDRkpcOTkYleRkndLTCi2FSB6vAqWSx0IWUvMhLlwN61DJM6mFllLIeGid0tOSlg5NRSV7GCR2t8GKY1MEqcCpZLHQhJS/y0uWAHrUMk3pYGaWsh8YJHS156eBkVJKXcUJHK7wYJnWwCpxKFgtdSMmLvHQ5oEctw6QeVkYp66FxQkdLXjo4GZXkZZzQ0QovV8LkysoKzp07h7Nnz+KRRx5BOp2u68grr7xS2abeds8///y1dbJePte+1tfXK9vIQcjB8KXHARYLPaxEKXmRly4H9KhlmNTDyihlPTRO6GjJSwcno5K8jBM6WuHleJiU4CgBcmpqquKCBMann34ax8fH17kigfPFF1+8tqx6O9lW9jF9XNuo5g3DZI0hij6yWCiCxTCpCxZ5qeLFMKkKV0Us//7SxYy8yEuXA7rUuhImJQBWh0cJl4899hgkPDZ7yXrZTraXMPncc8+13Idhspmjdq9jcbebT6068qp1xO7P5GU3n2p1DJPVbuh4z/mlg5NRSV7GCR0teengZFQKL8evTMoVRvljXu1eZay+MmmubsrtrfKnOpyafqVlmKx2Q9d7Fgvy0uWALrWcX3bzKh1HkYv9EYfL38b22N9i7KUPYv71h5GZfQZHm79EIXPF7gPoc3WcX7pOAPIiL10O6FIr88vxMCnfbew0TMrVTPmOZaOrl9Jns+9MPv744xgfH8fCwgL/KPFAeAl3MtNxzpKXDk5mPpGXfbwW52ewfumniI09hNTgLUiFTyEZugnJgRuQeONtSAzcgGToRiTDNyMVPoPE8N3YnnoGy7MjrJOW/b3G+WXf/DK1r15LXuRV77zgMmfOC5lfksPk4p9c5Ov29VfVO3Z6ZVJCYrOH9Ejf1bfAVo/FK5PVbuh6z38pJC9dDuhSy/llC68yyoV95KK/R3riXCU8JkKnKkExdvEr2Lj8E4T/8G/45lc/jv/+969gfuJFbF/4OmJjH0EidBrJgRuRGroDh0vfQuloGygXbTmwvtbB+aULP3mRly4HdKmV+eX4lUkJk9VXERt9Z9Lc/lp9FbORfQyTjZzRu5zFXRc78iIvXQ5YoLaUR2F/FvuzTyE1eBvi4TsRGf8sVi79GhcuXMD09DQuXbqE3/3ud3j00Ufxgx/8oHK3hiyTdZcn/4T18X9EdPA9kACanrgfx5FXUc7L09HLFhxg/0pgPdTFnrzIS5cDutTK/HI8TNaGx+pwKbc1mquQtQ/qqbbOPIRHlpnQWR1Qzba8Mmmc0NeyuOtiRl7kpcsBf9WWi4fIRV/D3uQDSIRvw87ow5if/Hdcmp7AlStXsLi4iM3NTUSjUQwPD+PJJ5/Er371K2xsbFSWbW1tVbaZmbmMK1OvYXX07xENn0VSrlKufBfFrNxKxEDpF2XWQ7+c725c8urON7/2Ii+/nO9uXOHleJgUKRIU6z08pzpMSsg025jWfG+y9gE89YKkjMMw2R14G/ZisbCBQvsayKt9r2zYkrz8o1DKJ5Fd+zFSw+9EbPBerJ7/Kq5MD+Dq1auVr2zEYjGkUins7+9X/rF0ZmYGzzzzDF599dXKslwuh4ODA+zu7laC5fLyMmavXMD8xE+xNfTRSjjdv/JFFNLT/h1kn4/M+aXrBCAv8tLlgC61Mr9cCZNe2cAw6ZXTzo/D4u68p272SF5uuut83+TlvKft9FjOp3C4+CyS4dOIDN2HhYkf4+rMJJaWlhCJRLC3t1cJkOXyW1cVG/00iGwjwTKTyVRCpfQxP/0q1ka+gHjoNPamHkI+OdyOLG7jsAOcXw4b6nJ35OWywQ53T14OG+pyd8KLYdJlk9l9fQdYLOr7YutS8rKVTH1d5FXfFzeXlnJJHMx/BcnwqcptrVcnfo3ZqzOVO2jkSqR8ZaNUKp2Q0ChMmg1NqJQrlXIb7PzMCJZH/xGJ0JnKQ31yiZDZlK1HDnB+eWS0Q8OQl0NGetQNeXlktEPDCC+GSYfMZDedOcBi0Zlffm9NXn4T6Gx88urMr163LuUSOJj7x8rPfWyPfAIzU69Vfs5Dvvsot7MWi42fwtoqTBptEkTl9tednR0szl3AwvnvVZ74mp74MHLxN8xmbD1wgPPLA5MdHIK8HDTTg67IywOTHRxCeDFMOmgou2rfARaL9r2yYUvysoFC+xrIq32vet2yckVSguTgGeyMfBwXJ9+oBEm5rTWbzaL6ltZ6Y7UbJmVfc5VS+l6Yv4K5sX+rXKGs3PK6O1mvey5zwQHOLxdMdbFL8nLRXBe6Ji8XTHWxS+HFMOmiwey6sQMsFo29sXENedlIpbEm8mrsjaNrSjlkV3+I1NDtiIw8gOmJcOUprHL18OjoqK2hOgmTpsNCoQB5kI8EyqWRp5EceBsyFz+N4sGS2YStiw5wfrlorgtdk5cLprrYJXm5aK4LXQsvhkkXjGWXrR1gsWjtkU1bkJdNNFprIa/WHvW8RbmE452XsTvyzspvQV6eeAWLiwuV21DlwTntvroJk9K33PYqgXJx/iJWRp5EcuAGHMx/FfI0Wb7cdYDzy11/ne6dvJx21N3+yMtdf53uXXgxTDrtKvtrywEWi7ZssmYj8rIGRVtCyKstm7rfqFxEPjWK9MT9iIXfgavj/4GF+blKkGz3iqQZvNswKfvLdzElUK7MDmJr+BNIhs8gu/4TlItZ0z1bFxzg/HLBVBe7JC8XzXWha/JywVQXuxReDJMuGsyuGzvAYtHYGxvXkJeNVBprIq/G3vS+pozi4SoyM/ITHbdhceybmL16Edvb223f2lqtoZcwKf3IVVD5DuXyzP9iZ+gcdkfvQS7+Z6BcqB6G7x10gPPLQTM96Iq8PDDZwSHIy0EzPehKeDFMemA0hzjpAIvFSU9sXkJeNtM5qY28Tnri1JJyIYPDpW8jEb4NayOPY+7yMOSprYeHh10N0WuYlIfyyM+ObG9tYHX6x4iG34m9qY+hsD8nj+zpShN3au4A51dzf2xbS162EWmuh7ya+2PbWuHFMGkblT7Rw2KhCzR5kZcuB1xSWy7iOPp7pIbega2hhzA3/SrW1taQyWTq/oZkOyp6DZMyhgRK+dmQjdVZrI9/FfHQrdiffQrlwn47ErhNhw6wHnZomM+bk5fPADocnrw6NMznzYUXw6TPEPp1eBYLXeTJi7x0OeCO2mJ2HenxDyEaPouFiZ9ieWkRu7u7TX9HspUSJ8KkjCEP5Emn01hdGIf81mUyfCuy6z9tNTzXd+EA62EXpvm4C3n5aH4XQ5NXF6b5uIvwYpj0EUA/D81ioYs+eZGXLgfcUbt/9e8RD53ByujTmJu9WHn4TT6f72kwp8KkiJCfDJG5unz5d4gO3oPU8DtQyFzpSR93PukA6+FJT2xeQl420zmpjbxOemLzEuHFMGkzoQBrY7HQBZe8yEuXA86rlZ8BSYZPY2fwHK5eDF/7nqTcYtrLy8kwKTrk+5M725tYGf8XJAZuwt70J1Eutvebl70cRz/ty3qoizZ5kZcuB3SplfnFMKmLWWDUsrjrQkle5KXLAWfVlrIbSA3dgcTAKVydfAmrq6uVW0p7DZKi0ukwKX3K9yfXVpcq3+tMhk8hu/ELZw3p895YD3WdAORFXroc0KVW5hfDpC5mgVHL4q4LJXmRly4HHFRbLuJg9ikkQzdiZfQfMTs7i3g8Xrml1IlR3AiTEnJlzi5c/lPl6uTu6L0o7M86IZd9ABVv5fupfOlwgH9/6eBkVJKXcUJHK7wYJnWwCpxKFgtdSMmLvHQ54JTaMnKxP2J3+C5EB+/G5enzld+TzGazTg3gypVJESff5dzZ2cHK+WeRDJ1G5upTKBed0+2YAQo7Yj3UBY28yEuXA7rUyvximNTFLDBqWdx1oSQv8tLlgDNqS0c7yFz8JBKhWzF7/kWsrKxUnt7qxO2tRqEbVyZN33K76+riRWwPfhi7o/fgOPJ7oFwyq9l26QDrYZfG+bQbeflkfJfDkleXxvm0m/BimPTJ/H4flsVC1xlAXuSlywEH1JbyONr4GVLDb8fa8KOYvXoJ0WjUsdtbjUI3w+Sbt7vGsXrpPxAP3Y7M5cdQPNo2Q7Pt0gHWwy6N82k38hZrmakAACAASURBVPLJ+C6HJa8ujfNpN+HFMOmT+f0+LIuFrjOAvMhLlwO9qy3szWBv6mOIhO/B7NTL2NhYh5O3txqFboZJGUNud91an8Pm2OOVnwo52vo1UOrt50yM9n5tWQ91kScv8tLlgC61Mr8YJnUxC4xaFnddKMmLvHQ50JvacuEAhyvPIzl4G5ZGv46lhStIpVJw8vZWo9DtMCmaM5k01mdfRSR8L/YuPIJCZs4Mz7YLB1gPuzDNx13Iy0fzuxiavLowzcddhBfDpI8A+nloFgtd9MmLvHQ50Jva/O4k0uPnsD14DvMXf4/NzU3Hb281Ct0OkzJOoVBAbGcVG5NfQzJ8C7LrP0G5eGgksO3QAdbDDg3zeXPy8hlAh8OTV4eG+by58GKY9BlCvw7PYqGLPHmRly4HuldbyqdwuPjPlYfuLIx9G8tL88hkMq5clRSVXoRJuTp5eHiIzfnXsDP4Ieyev49XJ7s/RfjTID1458eu/PvLD9e7H5O8uvfOjz2FF8OkH85zTP5lrOwcYHHXBYy8uudV2LuI3ZF3YmPwY1iceaPy8xpyZc+tlxdhUrQXi0Uk4tvYmnoOidBpHC5/D+XCvluHFeh+Ob904SUv8tLlgC61Mr8YJnUxC4xaFnddKMmLvHQ50J3acmGvclUyHjqD5fFvVX4KRK7oufFdSaPQqzAp48kDhDYWwtgZfhDJoTtRPFwxMth24ADrYQdmWbApeVkAoQMJ5NWBWRZsKrwYJi0A0Y8SWCx0UScv8tLlQDdqy8inziM5eAs2hj6BhSuDiMVirn1X0ij0MkzK1Ul5kNDW9D9DAvP+4jdR5pNdDYq2W9bDtq2yYkPysgJD2yLIq22rrNhQeDFMWoGi/0SwWOhiTl7kpcuBztXKA2n2Z76AWOhOLE38G1ZXVyvfM3TzqqSo9DJMynhHR0fYWh5FZPh+JIfejuLheudm9fkerIe6TgDyIi9dDuhSK/OLYVIXs8CoZXHXhZK8yEuXA52rrVyVDJ/B5vDHsXD1PJLJZOV7hp331NkeXofJUqn05tXJC/LdyTPIzD3TmWBuze/8KzsH+PeXLmDkpY8Xw6QuZoFRy2KhCyV5kZcuBzpUW8ohc/HTiIVux9LkD7C+vl65KtlhL11t7nWYFJGVq5MrE4gOvb/yW5qF/cWutPfrTqyHusiTF3npckCXWplfDJO6mAVGLYu7LpTkRV66HOhMbS4RQjJ8CltDD2H+6qRnVyVFpR9h0lyd3Jj6BhIDN2LvyhOdGdbnW7Me6joByIu8dDmgS63ML4ZJXcwCo5bFXRdK8iIvXQ50pjZz6TNIDNyM+YkfY2Njw7OrkqLSjzAp4+bzeWytXUEs/C6khu5APn2pM9P6eGvWQ13wyYu8dDmgS63ML4ZJXcwCo5bFXRdK8iIvXQ60rza/O4HU0G3YGXw/5q5eqnwfTq7cefXyK0zK8aXTaaxNfgvJ0A3Ym/mSV4esfhzWQ10IyYu8dDmgS63ML4ZJXcwCo5bFXRdK8iIvXQ60rzZz+dFKmJof+x42Nzc9vSopKv0Mk7lcDhvrq4iG7sTu6N3IpcbbN66Pt2Q91AWfvMhLlwO61Mr8YpjUxSwwalncdaEkL/LS5UB7avPJEeyOvAuR0FnMzMwgHo/D7Z8CqVXmZ5gULfLU2pXJf0MydAqZ2X8Cyt5dla31Qstn1kMtpN7USV7kpcsBXWplfjFM6mIWGLUs7rpQkhd56XKgtdpyKY+DuS8jGT6NubHvY21tDdlstvWODm/hd5iUq5Ob64uIhd+B9MT9yO9ddfgIg9cd66EupuRFXroc0KVW5hfDpC5mgVHL4q4LJXmRly4HWqst7F1Eevw+7ITfh6szFxCNRj2/Kikq/Q6ToiGVjGF94lkkw7fiYOlfUS4XWhvYx1uwHuqCT17kpcsBXWplfjFM6mIWGLUs7rpQkhd56XKgudpy6RiHy99BcvBWLI4+h7XVZc+/K2kU2hAm5erk1tIIooP3YG/6kygcrBh5bOs4wHpYxxSLF5GXxXDqSCOvOqZYvEh4MUxaDCjI0lgsdNElL/LS5UBztYX9Wexd+Dgig+/B3KXXfbsqKSptCJPyPdFkfAObk19BcugOZDf+Ayjlm5vYx2tZD3XBJy/y0uWALrUyvxgmdTELjFoWd10oyYu8dDnQRG0ph6ONn1V+DmR59CtYXb7q21VJUWlDmBQdR0dZbM3/HtHwWexd/gIKhxtNTOzvVayHuviTF3npckCXWplfDJO6mAVGLYu7LpTkRV66HGistni4hszlzyMSvhcL07/F9vYWvPxdyVpltoRJ8SARWcDW+BeQHHoHjqOv8cmutbD+8pn1sIExli4mL0vBNJBFXg2MsXSx8GKYtBRO0GWxWOgiTF7kpcuBxmpzsdeRGroDqyNfwMriBWQyGV8evGMU2hIm5VbXw8N9bF/9T8RCdyIz9zUUj5NGJtsqB1gPq8xQ8Ja8FECqkkheVWYoeCu8GCYVgAqiRBYLXVTJi7x0OVBfbSmXwMH8PyEavguLUz/HxsY6CgV/n1xqS5gUx8SL+OYF7Iw+XLk6mU9P1zeyz5eyHuo6AciLvHQ5oEutzC+GSV3MAqOWxV0XSvIiL10O1FebT08iNfx2bAw9jJW5YaTTaV9vcRWVNoVJuTopV2q3L/0r4qEz2F/5EUrFw/pm9vFS1kNd8MmLvHQ5oEutzC+GSV3MAqOWxV0XSvIiL10OnFRbLh4iu/oC4qFbsTLxXayvr+P4+Pjkhh4vsSlMyqHLz4REV8OIDn8YybH7+CCeOucD62EdUyxeRF4Ww6kjjbzqmGLxIuHFMGkxoCBLY7HQRZe8yEuXAyfVFrPr2Jt8ANuD92N55o9IJpMoFosnN/R4iW1hUh7Ek0rGsDP1NBIDNyG7/QpQ9t8nj7E0HY71sKk91q0kL+uQNBVEXk3tsW6l8GKYtA5LfwhisdDFmbzIS5cDNWrLRRzv/BaJ0CmsjT2FleXFys+ByG2dfr9sC5Pix9HREXYWfofY4L1ITXwM5eKR3zZZNT7roVU4Woohr5YWWbUBeVmFo6UY4cUw2dImbuCGAywWbrjqXp/k5Z63bvRMXte7Wi4dYe/CJxAJ34Pliy8hFov5/uAdo9DGMClXbBOxdUTOf6oSwI9TF4xctgA4v3SdBuRFXroc0KVW5hfDpC5mgVHL4q4LJXmRly4Hrleb3z2PZPg0Nkc+iaWFS9jb2/P150Cq1dkYJkXfwcEBtmd+hHj4NqQufqFact+/Zz3UdQqQF3npckCXWplfDJO6mAVGLYu7LpTkRV66HLhe7f6VLyEWuh3Lky9ge3vbigfvGIW2hkn5mZDI1gJiwx9AMnwLitktI7nvW9ZDXacAeZGXLgd0qZX5xTCpi1lg1LK460JJXuSly4G31MpvS6bCZxAZfB/mr4xjd3fX958DeUudXT8NUq1L3ld+JuTCPyE5cCP25r9du7pvP7Me6kJPXuSlywFdamV+MUzqYhYYtSzuulCSF3npcuAttdnV7yMxcCPWxv4Ba2tryGazb6204J2tVybFmnw+j62VKSRCp5EcuQel/IEFjvkvgfXQfwadKCCvTtzyf1vy8p9BJwqEF8NkJ45xW8ccYLFwzEpPOiIvT2x2bBDyetPKciGD3dGziIfOYO7i65UHp8hPX9j0sjlMik9yLm2NPIxk+BQOtn9vk3W+aeH88s36rgYmr65s820n8vLN+q4GFl4Mk11Zx516dYDFolcHvd2fvLz1u9fRyOtNB48j/4NU+BQ2h/4vlpeXK7dt9uqt0/vbHiblZ0I2rv6mcqtr6sJnUC7lnbZAXX+cX7qQkRd56XJAl1qZXwyTupgFRi2Luy6U5EVeuhwAUMojc/GzSIZuwtzEf2BnZ6dy26Ztx2F7mJTf4oxEIojKb06O3I3j1LRtFnquh/XQc8t7GpC8erLP853Jy3PLexpQeDFM9mQhd+7WARaLbp3zZz/y8sf3bkclL6CQuYLd0XsRCb8bC3OXkUqlurXT1f1sD5Ny8PIzIRsXvlf5eZXM/L+gXC666ontnXN+2U7oen3kdb0ftn8iL9sJXa9PeDFMXu8JP3nkAIuFR0Y7NAx5OWSkR92QF3C4/B2kBs9gaew5bGxsWPVzINWngYYwKd8z3V67hFjoTuxOfRz5g43qQ+i795xfupCTF3npckCXWplfDJO6mAVGLYu7LpTkRV6aHChmN7F34eOIhd6OucthxGIxyO2aNr40hEnxLb0bx9b5x5EcugsHm/9lo5WeaWI99MxqRwYiL0ds9KwT8vLMakcGEl4Mk45YyU46dYDFolPH/N2evPz1v9PR+53X8c5vsTvyLqwOP4aV5QXs7+93aqFn22sJk7lcDlvzv6/8TEjm6lMo5vc888i2gfp9ftnGo5Ue8mrlkF3rycsuHq3UCC+GyVYucb0rDrBYuGKra52Sl2vWutJxP/MqFw9xMPflSuhZuPBrbG1twrafA6mGriVMypXdxM4cdkYeQmr8fhwlx6sPo6/e9/P80giavHRRIy99vBgmdTELjFoWC10oyYu8tDhQSE9jb/Ij2Bp8AEuzY9Y+eMf4qSVMit6DTAqbF59HMnQzsus/M4fQdy3roS7k5EVeuhzQpVbmF8OkLmaBUcvirgsleZGXDgfKONr8BVKDt2Bx7FlsrC2iUChYLV1TmBQvIysDiIbfid3pzyG/v2K1t26JYz10y1l3+iUvd3x1q1fycstZd/oVXgyT7njLXls4wGLRwiDLVpOXZUBayOlXXvLgnf2ZLyAaugtLl/8H0WjU2gfvGISawqTcLpxOrGJr/EtIDt+Do1gIsPTBRsZfN9p+nV9ueOlFn+TlhcvOjUFeznnpRU/Ci2HSC6c5xgkHWCxOWGL1AvKyGs8Jcf3Jq4x8cgjpsfdiffjzWF2cqvw+4glzLFugKUyKddnsASJXf4ZE6Az2F7+DUj5jmaPuy+nP+eW+r26NQF5uOetOv+Tljq9u9Sq8GCbdcpf9NnWAxaKpPdatJC/rkDQV1I+85ME72dUXEA/dgpXJf8XW5hry+XxTn2xYqS1Myq2u8Y1RREYeRPL8A8hnFmyw0VMN/Ti/PDXY4cHIy2FDXe6OvFw22OHuhRfDpMOmsrv2HGCxaM8nW7YiL1tItKejH3kVD1exN/0ItgfPYeXKHyoP3rH5Ka6GpLYwKU91zezuIHLhK0iEbkF251WUS/aHduO3E20/zi8nfPOrD/Lyy/nuxiWv7nzzay/hxTDpl/t9Pi6Lha4TgLzIy2oHyiXkEiEkB2/F2tjfY3X5KrLZrNWSjThtYVJ0Hx8fIzr/K8TkQTyXn0QxlzKH0xct66EuzORFXroc0KVW5hfDpC5mgVHL4q4LJXmRl80OlPN7OFj4GmLhd2B1+seIRCLWP8XV+KkxTBaLRSQjs4iefwSJoXeicLhuDqcvWtZDXZjJi7x0OaBLrcwvhkldzAKjlsVdF0ryIi+bHSgebWF37D3YGvoYlmeHkclkrH+Kq/FTY5gU7fv7GUQufh3x0Gnsr/4C5bLdP8Fi/HaiZT10wkXv+iAv77x2YiTycsJF7/oQXgyT3vnNkaocYLGoMkPBW/JSAKlKYl/xKhdxtP0bJEI3Y/38P2BtbRVHR0dVbtj9VmuYzOVyiK68jtjQe5GYeBjl4rHdRjuorq/ml4O++dUVefnlfHfjkld3vvm1l/BimPTL/T4fl8VC1wlAXuRlqwPl0jH2Lz+KSPheLF/6b8i5Kk8c1fLSGiblQTypxA5i5z+O5MBfI5ee1WJ5zzpZD3u20NMOyMtTu3sejLx6ttDTDoQXw6SnlnMw4wCLhXFCR0teOjgZlf3ES57imhx4G7aHP4rlhUvY399Xc4ur8NIaJkX74eEhdi5/t/JU19TVfzGnX+DbfppfQYBJXrookpc+XgyTupgFRi2LhS6U5EVetjqQXf0B4qEzWJt4DltbW5UnjdqqtZ4uzWFSrgBH1ycQH7oXiaG7USoc1DvEwC1jPdSFlLzIS5cDutTK/GKY1MUsMGpZ3HWhJC/ystGBcjGL9Pn3V36iYvHya2p+W7LaS81hUo4jnU4jMv43SA7cgIPt16oPLbDvWQ91oSUv8tLlgC61Mr8YJnUxC4xaFnddKMmLvGx0IJ8ar9ziujXyCFaWFyq3uNqos5km7WFSfnNya/alygOQUtOPNjvUwKxjPdSFkrzIS5cDutTK/GKY1MUsMGpZ3HWhJC/ystGB/dl/RGLgJixN/qDy25L5fN5GmU01aQ+T8iCe6M5K5epwcugdOM4sNT3eIKxkPdRFkbzIS5cDutTK/GKY1MUsMGpZ3HWhJC/yss2B0nEUuyPvRCx8B+avTmB3d1fVg3eMn9rDpByHPPRoa/wJJEM3YW/5RXNogW1ZD3WhJS/y0uWALrUyvxgmdTELjFoWd10oyYu8bHPgePslpMI3Y33kMayvryObzdomsS09QQiT8iCezcXByi3Hu1MPo1TQ8zufbUGq2Yj1sMYQyz+Sl+WAauSRV40hln8UXgyTlkMKqjwWC11kyYu8bHMgc/lzlfBydeoVRKNRlEol2yS2pScIYVIONBGPIzr4bqRGzuIwNtLWsWvdiPVQFznyIi9dDuhSK/PLlTC5srKCc+fO4ezZs3jkkUcqT3urZ80rr7xS2abedu30If8aLfvKQcjB8KXHARZ3PaxEKXmRl00O5PemsTt6N6Khd2F+fr7h3zE2aW6kJShhUq4Mb1x8AcnwGewtfBdAudEhq1/OeqgLIXmRly4HdKmV+eV4mJTHhEuAnJqaqrghgfHpp58+8dtfEhZffPGt71ZUb9duHwyTuk64arUs7tVu2P+evOxnVK0w6Lyyaz9CavBWLI8+g83NzRN/v1R7Yfv7oIRJuTK8tXoJidAppC88jMLxru3Wd60v6POra2Ms3ZG8LAXTQBZ5NTDG0sXCy/EwKSGyOjxKMHzssccg4bHZS9bLdrJ9u30wTDZz1O51LBZ286lVR161jtj9Oci8ysVDyC2uidBpzF78M2KxmMoH75gzKChhUo5nNxXF9ugnkRx5Dw4jb5hDDFwb5PkVOFi8s0YdUs4vXciEl+NhUq4wyh/zkt+gknBprlSa5bVt9ZXJdvswYfLJJ5+shFUJovyjwwP5x4ONjQ3yUnLOkpeOeWXqX5B57W29gdTY+7Dy+jlMXzhfuTJpjltjOzk5ia997WuVvzflu58aj8FojsUimB97HomB00jOfA3p3YTq4zHHVdsGeX7VHmsQPpMX//4Kwnls6zHI/JIcJl87lFzW7euvqnd8/vnnOw6TEjTlO5YiSF7t9mHC5BNPPIGFhYXK97okIfOP/R4IL+FNVvazEkbkpYOTmU+B5RWPIn752cpVySvh53D50nTl4TvmuDW258+fxzPPPIOXX34ZW1tbqmtiPB7H0pU3EAnfg+jYJxBZn1J9PI3Op8DOr4D+/xN58e+vRnOZy3s/N2R+SQ5zNEy2e1XRBFAJjrUP6Wm3DxMm+QAe46aeViaw/CsLXzocIC8dnIzKoPIqHe0gc/lRRMPvwtLMnyDhRfsrSLe5lstlZFJb2B7/OySH78Hhzmva8dTVH9T5VfdgA7CQvHRBJC99vFy5zVUConlJYKj3nUlz+6sEx9qXLGunD4bJWuf0fGax0MNKlJIXedngQD45iPT5D2Jt6HNYW7qk9rclq70MUpiU48rljhCZf6ly9Tiz8E0U8/vVhxuI96yHujCSF3npckCXWplfjofJ2vBYHQzldlZzFbL2ITvV1jXro3o7hslqN3S9Z3EnL10O6FIbyPlVLiC7+gKSoZuwNPkCtjbX1P62ZPXZFLQwWSwWkdgcR3ToA0hNfhy5vavVhxuI94GcX4EgU/8gyKu+L7YuJS9bydTXJbwcD5MylARFuXdW/lQ/2bU6TErINNuYtvp7k436qD4UhslqN3S9Z7EgL10O6FIbxPlVPFytPMU1En4PVq/+EclkQvVTXM0ZFbQwKbe67qe3sT35NBLh23EU/aM51MC0QZxfgYFT50DIq44pFi8iL4vh1JEmvFwJk3XGcmURw6QrtnrSKYuFJzY7Ngh5OWalJx0FkVcu/gZSw3dhbfhRrC9Pq/5tyeqTIGhhUo4tl8shOv9rxEO3IrP4XRTzmepDVv8+iPNLPZQmB0BeTcyxcBV5WQiliSThxTDZxCCucs8BFgv3vHWjZ/Jyw1X3+gwar3Ixi+zqDxEPncHK1A+ws70JuZ0yCK8ghklhk9oaR3TkQSTGH0IusxgEVNeOIWjz69qBBfQNeekCS176eDFM6mIWGLUsFrpQkhd5+elAMbuOzKXPYnvwHFav/qHyJGi5nTIIryCGSWFzkIkhOv0VJMK3IRv9M8rlYIR/OedYD3XNPPIiL10O6FIr84thUhezwKhlcdeFkrzIyzcHyiXkU6NIDd2J9dHHsbZ8GUdHR77JcXrgIIZJ8Uie2B6b/wXi4bdj98pXUMwF56egWA+dngXu9kde7vrrdO/k5bSj7vYnvBgm3fWYvTdwgMWigTGWLiYvS8E0kBUkXuXiYeUprrHQ7Vi78H3s7OygUCg0OHJ9i4MaJiu3um5PIDr6IJKj70PhcFMfnAaKgzS/GhxioBaTly6c5KWPF8OkLmaBUctioQsleZGXXw6UjiNITz6AncH7sHr199jb2wvET4IYP4MaJuX49vcSiF54uvKbk4c7fwTKJXPYqlvWQ134yIu8dDmgS63ML4ZJXcwCo5bFXRdK8iIvfxwoI787hmT4FDbHPo/11flA3eIqngY5TMqtrtGFlxAbfBdSl55AuZTz5zRyeFTWQ4cNdbk78nLZYIe7Jy+HDXW5O+HFMOmyyey+vgMsFvV9sXUpedlKpr6uwPAq5XG4+CxioTuxNv0CYrFYoG5xFXpBDpOlUgnJyDxiow8gMfgOFPP79U9YZUsDM7+U+d6tXPLq1jl/9iMvf3zvdlThxTDZrXvcrycHWCx6ss/zncnLc8t7GjAovOQnQXbH7q3c4rp4dahyi2tQnuJqAAc5TMoxHuzvI3rhCSRCN2Nv43/NYatugzK/VEPoQDx5dWCWBZuSlwUQOpAgvBgmOzCMmzrnAIuFc1560RN5eeGyc2MEhVchPYXEwI3YHH0Ua2tryGazzplkSU9BD5O5XA6RhZcRD9+J+NSjlrjem4ygzK/eXNCzN3npYSVKyUsfL4ZJXcwCo5bFQhdK8iIvPxw4mHsK8dDtWLnww0De4iqeBj1MypXkRHQF8ZEPIBE+g/yx/p8IYT30oxp0PyZ5de+dH3uSlx+udz+m8GKY7N4/7tmDAywWPZjnw67k5YPpPQwZBF5yi2tq+C5EBt+DhatjSKfTCNotroI46GFSjvHg4ACRqSeQHLgB6eWf9nBm27FrEOaXHU56o4K8vPHZqVHIyyknvelHeDFMeuM1R6lxgMWixhDLP5KX5YBq5AWBVz4xUAkfm6Ofw/r6eiBvcRVs/RAm8/k8dhZeRSJ0Csnxh1Au5WvOWF0fgzC/dDnem1ry6s0/r/cmL68d72084cUw2ZuH3LtLB1gsujTOp93Iyyfjuxw2CLz2rzxeeWjL0oWfB/YWV8HbD2GycqtrbAOxwbuRDJ/BcXq2yzPbjt2CML/scNIbFeTljc9OjUJeTjnpTT/Ci2HSG685So0DLBY1hlj+kbwsB1QjTzuvUi6J3ZF3Iha+C0vzFytPca05xMB87IcwKbDkVtftyaeRDN2EvcUXVPPTPr9Um9+FePLqwjQfdyEvH83vYmjhxTDZhXHcpXcHWCx699DLHsjLS7d7H0s7r+PI75AKn8L6yKPY3NzE8fFx76ZY2kO/hMlCoYCtRbl1+W3YnfwYSoUjS4m0lqV9frU+wmBtQV66eJKXPl4Mk7qYBUYti4UulORFXl46kLn0mUromJv6TeUW1yA+eMf42S9hUo43mYhiZ/D9SI3cjWxi0ligrmU91IWMvMhLlwO61Mr8YpjUxSwwalncdaEkL/LyyoFC5gp2R+9FNHQnFhfmA32Lq3jaT2Hy8PAQG9PfQzJ8C/YWv+/VKeX4OKyHjlvqaofk5aq9jndOXo5b6mqHwoth0lWL2XkjB1gsGjlj53LyspNLI1WaeR1t/AypoduwOvJFbGxsQH70PsivfgqTwnF77dKbPxFy4REUcvsq0WqeXyoN71E0efVooMe7k5fHhvc4nPBimOzRRO7enQMsFt355tde5OWX892Nq5VXuZRD5vLnKw9pmbvwu8otrt05oGevfguT6VQM2yOfQHL0/TiMjegBVaVU6/yqOoS+ekteunCTlz5eDJO6mAVGLYuFLpTkRV5eOJBPX0B6/D5Ewu/B0uIVZDIZL4b1dYx+C5PHR4fYuvQDJMO3IrP8Asrlkq/+dzM462E3rvm3D3n55303I5NXN675t4/wYpj0z/++HpnFQhd+8iIvLxw42vh3pIbuwMro09jcWIX82H3QX/0WJiU8xtbPIx6+A+lLf4t8NqYOMeuhLmTkRV66HNClVuYXw6QuZoFRy+KuCyV5kZfbDpTyaexffRKJ0BksXnwZsVjU7SGt6L//wmQZ6eQatsc+g+TYh5CN67vVlfXQiqnTtgjyatsqKzYkLyswtC1CeDFMtm0XN3TSARYLJ910vy/yct9jJ0fQyCufnsLe5APYHrwPqwvj2N/X+XCWTjn2W5gUf46P9rEz80Mkw2dwsPoTlEuFTm3zdXuN88tXw3wenLx8BtDh8OTVoWE+by68GCZ9htCvw7NY6CJPXuTltgNHW7+uPMV1Zeyr2FxbQLFYdHtIK/rvxzBZLBYQXw8jNngWu5e/hPzhthUs2hXBetiuU3ZsR152cGhXBXm165Qd2wkvhkk7WPSdChYLXcjJi7zcdKCUi+Ng7suIh27ByqWXKre4lstlN4e0pu9+DJOlUgnp+CJ2zv8NEqMfxFFym7btCgAAIABJREFU3Boe7QhhPWzHJXu2IS97WLSjhLzaccmebYQXw6Q9PPpKCYuFLtzkRV5uOlDYm67c4ro1+H+wNj/YN7e4iqf9GCbluI+PDhC98n0kB96Gg/X/REnRra6sh25WA+f7Ji/nPXWzR/Jy013n+xZeDJPO+8oe23CAxaINkyzahLwsgtGGFF28yjiO/A+S4VNYHfsqNtbmUSjo+g5dG0gabtKvYVIYJ1b/hOjgu5G69PcoZCMNPbJtha75ZZt73ushL+8972VE8urFPe/3FV4Mk977zhEBsFjoOg3Ii7zccqCUT+Fg8TnEQrdj7dIvEI/HIbdB9surX8Pkm7e6ziMy/lkkRt6LXPqyGuSsh2pQVYSSF3npckCXWplfDJO6mAVGLYu7LpTkRV5uOVDYn0d64n5sDX0Ea3MDlVtc++X7kuJpv4ZJOfZsdh+xme8gEboZBxv/hXIx59Zp5mi/rIeO2ul6Z+TlusWODkBejtrpemfCi2HSdZs5QD0HWCzquWLvMvKyl009ZWp4lUvIJcJIDt6G9fNPY2NtAbmcjkBRz/dulvVzmMzn84iv/B7RofciefHvUDxOdWOh5/uomV+eO2PngORlJ5dGqsirkTN2LhdeDJN2sgm8KhYLXYjJi7zccKBc2Mfh8rcRC92JtYsvVm5x7ZefBDF+9nOYlFtdd2NziJ5/BImhdyKXWTS2WN2yHlqN54Q48jphidULyMtqPCfECS+GyRO2cIEXDrBYeOGyc2OQl3NeetGTFl6lox2kJz6M7aEHsToX6rtbXOVc6OcwKcd/eLCH2MWvVm513ZdbXcv2/76olvnlRa3RMAZ5aaD0lkbyessLDe+EF8OkBlIB1MhioQsqeZGX8w6UkU+NIRE+g83zX8LG+gqOj4+dH8byHvs9TFZudV36L8QHzyJ54fMol+w/B1gPLZ9UNfLIq8YQyz+Sl+WAauQJL4bJGlP40RsHWCy88dmpUcjLKSe96UcFr1Ieh4vPvnmL6/QPK7e49tNPgpgzod/DpDxsKRVdQGz0ASTDp1HIRo011rYq5pe17nkvjLy897yXEcmrF/e831d4MUx67ztH5E+DqDsHWNx1IdPAq1zMIjV6D3YG78PS7HDlFlddLjujtt/DpLh4cLCP6IUnkBi4CXurv3LGWBd70TC/XDx8dV2Tly5k5KWPF8OkLmaBUctioQsleZGX0w4U0lNIDNyIrbHPY2NjA0dHR04PoaI/hklUnuAbWXgZ8fCdSEw8Yj031kPrEV0nkLyus8P6D+RlPaLrBAovhsnrLOEHrxxgsfDKaWfGIS9nfPSqFw289mefQjx0O1Yv/Kgvn+JqzgWGSUBudU1EVxAf+UDlO7T544yxx8pWw/yy0jifRJGXT8Z3OSx5dWmcT7sJL4ZJn8zv92FZLHSdAeRFXk46ULnFdfgdiAy+B4uz55HJ2B0enDz22r4YJt905ODgAJGpJ5AcuAHp1ZdqbbLqM+uhVThaiiGvlhZZtQF5WYWjpRjhxTDZ0iZu4IYDLBZuuOpen+Tlnrdu9Gw7r3xioBIaNkc/h/X19b69xVXYM0y+OQPkqa47C68iETqFxOSnKlcr3ZgbTvRp+/xy4hiD1Ad56aJJXvp4MUzqYhYYtSwWulCSF3k56cD+lceRGLgZi1M/QzQaRbFo/28LOnn81X0xTL7pRuVW19gGYoN3Izl4B47316ptsuo966FVOFqKIa+WFlm1AXlZhaOlGOHFMNnSJm7ghgMsFm646l6f5OWet270bDOvUi6J3ZF3Iha+C/OzF5BOp92wQE2fDJNvoZJbXbcnn0YydDPSyz9/a4Vl72yeX5ZZZYUc8rICQ9siyKttq6zYUHgxTFqBov9EsFjoYk5e5OWUA8eR3yEVPoX1kTdvcc1ms051rbIfhsm3sMnvjG4tyi3Qb8Puhc+gVCq9tdKid6yHFsFoQwp5tWGSRZuQl0Uw2pAivBgm2zCKmzjvAIuF85662SN5uemu833bzGv/yheQDN2AuYl/RyQSsTYwOE+lfo8Mk9f7kkxEEQ3fjdTou5FNXbl+pSWfbJ5fllhklQzysgpHSzHk1dIiqzYQXgyTViHpHzEsFrpYkxd5OeFA6Wgb6fPvQzx0GnNzV/v+FlfxlGHy+jPr8PAQm1PPIjl4G/aWf3L9Sks+sR5aAqJNGeTVplGWbEZeloBoU4bwYphs0yxu5qwDLBbO+ul2b+TltsPO9m8rr+Ptl5AaugPrw5/p+6e4GuIMk8aJN1u5tXVraQTJgRuRvvS3KBUL129gwSdb55cF1lgpgbysxNJQFHk1tMbKFcKLYdJKNMEXxWKhizF5kVfPDpQL2L/6BJKhmzA/8bPKLa7yBM9+fzFMnjwDUokdRIY+hNTYh5BNTJ3cwOclrIc+A+hwePLq0DCfNycvnwF0OLzwYpjs0DRu7owDLBbO+OhVL+TlldPOjGMjr2J2DXtTH0E0fBcW5i7xFte/oGaYPHnOZw/3sTX9rcpPhOyv2vdUVxvn10kXucQ4QF7GCR0teengZFQKL4ZJ4wZbTx1gsfDU7p4HI6+eLfS0Axt5HUf/gN3Re7A28hjW15ZxfHzsqSe2DsYweZJMqVhEZPkNJEKnsHflSRRyeyc38nGJjfPLRzusH5q8rEd0nUDyus4O6z8IL4ZJ6zEFUyCLhS6u5EVePTlQyuFg4RtIhs9gceoXiER2wFtc33SUYfLkmSXnxm5sHpGhDyI1/gCOkpMnN/JxCeuhj+Z3MTR5dWGaj7uQl4/mdzG08GKY7MI47tK7AywWvXvoZQ/k5aXbvY9lG6/i4RoyFz+NSPi9WJkbxd6eXVeaene8+x4YJut7lz1IYOfCM0gO3o7DzV/X38inpbbNL59sUDMsealBVRFKXvp4MUzqYhYYtSwWulCSF3n14sCbt7jejdWRL2J99Sry+Xwv3QVqX4bJ+jgL+Ryii79DPHQL9ua+hkJut/6GPixlPfTB9B6GJK8ezPNhV/LywfQehhReDJM9GMhdu3eAxaJ77/zYk7z8cL37MW3iVS4e4XD5u5Xvvy1N8xbXWqoMk7WOvPlZfiJkd2cakeH7kZz4GI7TM/U39GGpTfPLh8NXNyR56UJGXvp4MUzqYhYYtSwWulCSF3l160DxcAWZy5/DzuCHsDY3ULnFld+XfMtNhsm3vKh+J+fI4X4ckemvIxG+DdnIa9Z8z5b1sJqU/e/Jy35G1QrJq9oN+98LL4ZJ+zkFUiGLhS6s5EVe3TqQi7+B1PBdb97iunyJT3GtMZJhssaQqo+5XA6xhd8gHroVewvfQTGXqVrr31vWQ/+872Zk8urGNf/2IS//vO9mZOHFMNmNc9ynZwdYLHq20NMOyMtTu3sezBZe5WIW2dUfIh46g+ULP8b29jaKxWLPxxekDhgmG9OUc2V3ewLRkQeRGH8Iucxi4409XGPL/PLwkFUPRV668JGXPl4Mk7qYBUYti4UulORFXt04UMyuI3Pps9gePIfVq39AOp225lbFbo7HjX0YJhu7Kre6HmRiiE5/5c1bXWNhlMulxjt4tIb10COjHRqGvBwy0qNuyMsjox0aRngxTDpkJrvpzAEWi8788ntr8vKbQGfjW8GrXEI+NYrU0B3YGPk81pYv4ejoqLMD6YOtGSabQz4+PkZs/heIh9+O9Py3UcrvN9/Bg7VWzC8PjjMoQ5CXLpLkpY8Xw6QuZoFRy2KhCyV5kVenDlRucV17sfLTDutT38bOzhYKhUKn3QR+e4bJ5ojlVteU3Oo6+iASYx9GIbvdfAcP1rIeemCyg0OQl4NmetAVeXlgsoNDCC+GSQcNZVftO8Bi0b5XNmxJXjZQaF+DDbxKxzHsXXgYO4Pvx+rMK5VbXOXnHvi63gGGyev9qPdpfy+B6IUnkQjdgmx8FPD5Vlcb5lc9n7isvgPkVd8XW5eSl61k6usSXgyT9b3hUpcdYLFw2WCHuycvhw11uTv/eZVRSF9EKnwaWyOfxNrSZWSzWZePWmf3DJOtuVVudZ37KeLhO5G6+nWUS/nWO7m4hf/zy8WDC2DX5KULKnnp48UwqYtZYNSyWOhCSV7k1ZED5QKONv+j8pMO65P/gsjODvJ5fwNAR/o93JhhsrXZckU7uTWB+MiHEB9+N4r5w9Y7ubgF66GL5rrQNXm5YKqLXZKXi+a60LXwYph0wVh22doBFovWHtm0BXnZRKO1Fr95lUvH2Lv4aUTC78by5TdvcZUnc/J10gGGyZOe1FuSyewhPvkZJAduwEF8ot4mni3ze355dqABGYi8dIEkL328GCZ1MQuMWhYLXSjJi7w6caB0tI3kwF9jZ+SjWFmew+Ghv1eSOtHu9bYMk+05nsvlEL3yfSRCtyJ56R/a28mlrVgPXTLWpW7JyyVjXeqWvFwy1qVuhRfDpEvmstvmDrBYNPfHtrXkZRuR5nr85pXd+HnlKa5rE99AJBLhLa5NcDFMNjGnapXc6hpbH0N86G7EB9+BcvG4aq23b/2eX94erf7RyEsXQ/LSx4thUhezwKhlsdCFkrzIq20HykWkJx9CLHwXli6/it3dXfAW18buMUw29qZ2TTqdRvT8w0gOvA0H0XDtas8+sx56ZrUjA5GXIzZ61gl5eWa1IwMJL4ZJR6xkJ506wGLRqWP+bk9e/vrf6eh+8ioeLFX+Z39n+CNYXV7gLa4t4DFMtjCoavXR0RF2Zn6AROgmJC/9fdUab9/6Ob+8PdJgjEZeujiSlz5eDJO6mAVGLYuFLpTkRV7tOpBdfQGJgZuwMv7PlVtcC4VCu7v25XYMk+1jl1tdo5sXkQjfhsTwu1HIZdrf2cEtWQ8dNNODrsjLA5MdHIK8HDTTg66EF8OkB0ZziJMOsFic9MTmJeRlM52T2vziVS7lkB6/D4nQaSxc/jNSqRRvcT2J57olDJPX2dHyg9zqGhn9BJLh09iPDLXc3o0N/JpfbhxLP/RJXrook5c+XgyTupgFRi2LhS6U5EVe7ThQSE8jFT6N7aEHsby0gP39/XZ26+ttGCY7wy9Pdd28/GMkQzciNfOVznZ2aGvWQ4eM9Kgb8vLIaIeGIS+HjPSoG+HFMOmR2RzmegdYLK73w/ZP5GU7oev1+cUru/I8kqGbsDD2LWxvb/MprtdjqfuJYbKuLQ0XysOcIturiIdOI3X+PuSziYbburXCr/nl1vEEvV/y0kWYvPTxYpjUxSwwalksdKEkL/Jq5UC5eIT0+LnK70vOzpyHnDN8tXaAYbK1R7VbyK2u26OfQnLoLuxv/6l2teufWQ9dt9jRAcjLUTtd74y8XLfY0QGEF8Oko5ays3YdYLFo1yk7tiMvOzi0q8IPXvnUKHZH3oXNoY9jeXmZt7i2CYthsk2jqjaThzptzPwCidDNSF/5ClAuV611/60f88v9owruCOSliy156ePFMKmLWWDUsljoQkle5NXcgTKyy99FavAM5sf+tXKLa7FYbL4L11YcYJjs7kSI7qwhHr4Du5MfRe5gu7tOutyL9bBL43zajbx8Mr7LYcmrS+N82k14MUz6ZH6/D8tioesMIC/yauZAKZfC3oVPIDFwCnMzo4jH480257oqBxgmq8zo4G1mL4nt848hOXwPDrb/0MGevW/Keti7h172QF5eut37WOTVu4de9iC8GCa9dJxjXXOAxeKaFSrekJcKTNdEes0rnxhEeux92Bz8CFaW53B4eHhNC980d4Bhsrk/jdYW8jlsz/668jM0mblvoFTMNdrU8eVezy/HD6DPOiQvXcDJSx8vV8LkysoKzp07h7Nnz+KRRx6BfFm+0ctsOzU1dd0mzz//fGV/6UP+yOfa1/r6emWdHIScfHzpcYDFQg8rUUpe5NXQgXIR8hRXucV1afw72NragPy4PF/tOcAw2Z5PtVvJU13j25cRHbwXuxc+hVxmtXYT1z6zHrpmrSsdk5crtrrWKXm5Zq0rHQsvx8OkBEcJkCYcvvLKK3j66adxfHx83UGY7R577DHIH7O9bCTbyj7Vy67b+S8fGCbruaJjGYuFDk5GJXkZJ3S0XvIqHe0gc/lRxEK3YWnmNSQSvMW1k7OEYbITt67fdj+9je2Jv0Ni+B4c7rx2/UoXP3k5v1w8jL7pmrx0oSYvfbwcD5MSAKvDo4RGCYtyBbLeq15wlGXPPfdcw31MPwyTxgl9LYuFLmbkRV6NHMgnB5E+/0FsDD2CtaWLyGazjTbl8joOMEzWMaXNRfncESLzL715q+vid1EseHPusR62CciSzcjLEhBtyiCvNo2yZDPh5XiYlCuR8se86oVFs07aeuvNVUtzi2t1OK3el2Gy2g1d71ksyEuXA7rUeja/ygVkV19AMnQTlse/i62NVd7i2uGpwjDZoWFVm8sTgxOb44gOfQCpC3+DXKb+P1pX7eLIW8/mlyNq2Ql56ToHyEsfL8fDpHy3sdcwWWuj9NnsO5OPP/44xsfHsbCwwD9KPBBechWbzHScs+Slg5OZT17xWp4dxM7Yp7Dz59sx/McXcP78eczPz3Ned1CHX3/9dXz1q1/FL3/5S8zMzNC7DryTc+3yhTDm//xpRAfejpXpX3jin1fzy8xntr3VX/LqzT+vzz/y0sdLcphcAJSLfN2+/qp6RyeuTFb3J+/lFlm5VVauWFa/eGWy2g1d7/kvT+SlywFdar2aX/nUGNLn34+N4U9hfWkSR0dHuoyyQC2vTPYGIZfLITr/SyRCNyOz9AKKBfefJOzV/OrNGe5tHCAv44SOlrx0cDIqhZfjVyYlTFZfRezmO5NGoGkZJo0TwWlZLHSxJC/yqnWgXMrhaOPnSA7cgNWJb1ZucS0UCrWb8XMLBxgmWxjUYrWcc8mNIUSH70Ny6rPIH3T/L+Mthrq2mvXwmhUq3pCXCkzXRJLXNStUvBFejofJ2vBYHS7ltsbanwpp9J1JWS4vs746oBp3eWXSOKGvZbHQxYy8yKvWgdLRNvavfBGR8FmszvwGyWSS35esNamNzwyTbZjUZBP5iZBMagORyb9DPPx2HCfGgHK5yR69r2I97N1DL3sgLy/d7n0s8urdQy97EF6Oh0k5AAmN9R6e00mYlNBp+qgXJGUchkkvTxdnx2KxcNZPt3sjL7cddrZ/93mVUUhPY3f0HmwOfwpri+OVp7jK/9jz1ZkDDJOd+VVva7m9Ojb7IuKhW7G39GOUXH6qq/vzq95Rclm3DpBXt875sx95+eN7t6MKL1fCZLeCOt2PYbJTx+zZnsXCHhbtKCGvdlyyZxu3eZVLxzja/E8kBm7G+sTXsbW5hnw+b48BipQwTPYOS251TayHKre6JiYeRvEo1nunTXpwe341GZqrunCAvLowzcddyMtH87sYWngxTHZhHHfp3QEWi9499LIH8vLS7d7HcptXKZfE/swXEAnfi7XLv0YqleItrl1iY5js0riq3eSK+N7uDqKTjyERvhVHyWlXb3V1e35VHRrfOuAAeTlgooddkJeHZjswlPBimHTASHbRuQMsFp175uce5OWn+52P7Tav4v48UkO3Y2v4E1hdmMThoftP0OzcBR17MEw6wymbzSJ69QeIh29HevGHKJfcexiU2/PLGUfYi3GAvIwTOlry0sHJqBReDJPGDbaeOsBi4andPQ9GXj1b6GkHrvIqF3G0+UskBk5hY+LL2NrcgPw8A1/dOcAw2Z1vtXsVi0XE18OIDb8f8dEPo1x072dqXJ1ftQfGzz07QF49W+hpB+Tlqd09Dya8GCZ7tpEddOMAi0U3rvm3D3n55303I7vJS74vmbn0GUTCd2Pl0kvY3d3lLa7dQPrLPgyTPZhXs+teehexiU8jOXAjsqm5mrXOfXRzfjmnkj0ZB8jLOKGjJS8dnIxK4cUwadxg66kDLBae2t3zYOTVs4WeduAmL/lJkOTAX2Nn+EGsLFzEwcGBp8cWtMEYJp0jKre6Rmb+FYnQrUjNfc+5jmt6cnN+1QzFjw44QF4OmOhhF+TlodkODCW8GCYdMJJddO4Ai0Xnnvm5B3n56X7nY7vJ62jj54iHbsHaxDewtbVV+S3gzhVyD+MAw6RxovdWbnWNrY8iPnQ34kPvRrnkzhOG3ZxfvbvAHmodIK9aR+z+TF5286lVJ7wYJmtd4WdPHGCx8MRmxwYhL8es9KQj13iVi9ibegix8F1YvPS/fIqrAzQZJh0wsaqLdDqN6PmHkRx4Gw7i01VrnHvr2vxyTiJ7qnKAvKrMUPCWvBRAqpIovBgmqwzhW+8cYLHwzmsnRiIvJ1z0rg+3eBUPlir/k74z/BEsL81hf3/fu4MK6EgMk86CPTo6ws7MD5AI3YTkla872/lfenNrfrkilp2CvHSdBOSljxfDpC5mgVHLYqELJXmRlziQXX0BiYGbsDL+z9je3uZTXB04LRgmHTCxqotSqYTo5kUkwrchMfxuFHKZqrXOvGU9dMZHr3ohL6+cdmYc8nLGR696EV4Mk165zXGuc4DF4jo7rP9AXtYjuk6gG7zKpRzS4/chETqN+ct/RjKZhPxYPF+9OcAw2Zt/9faWW10jo59AMnwa+5Ghepv0tMyN+dWTIO7c1AHyamqPdSvJyzokTQUJL4bJphZxpVsOsFi45aw7/ZKXO7661asbvArpaaTCp7E99CCWlxZ4i6tD8BgmHTKyqhv53dPNyz9GMnQDdi8/WbXGmbduzC9nlLGXeg6QVz1X7F1GXvayqadMeDFM1nOGy1x3gMXCdYsdHYC8HLXT9c7c4JVdeR7J0E1YGPtW5RbXfN6dJ2W6bo5lAzBMOg9ErphHtlcRD51CauwDyB9uOzqIG/PLUYHs7DoHyOs6O6z/QF7WI7pOoPBimLzOEn7wygEWC6+cdmYc8nLGR696cZpXuXiE9Pi5yu9Lzs6crzzQwqtjCfo4DJPuEJZbXbdHP4Xk0B3YX3/J0UGcnl+OimNnJxwgrxOWWL2AvKzGc0Kc8GKYPGELF3jhAIuFFy47NwZ5OeelFz05zSufHMHuyLuwOfRxrKys4PDw0IvD6IsxGCbdwVwoFLAx84vK1fT0zBOAg9/vdXp+ueMAezUOkJdxQkdLXjo4GZXCi2HSuMHWUwdYLDy1u+fByKtnCz3twFFe5RIOF79R+b7kwvl/w87ODuSJmXw54wDDpDM+1uslurOGWPhO7E48iFxmud4mXS1zdH51pYA7deIAeXXilv/bkpf/DDpRILwYJjtxjNs65gCLhWNWetIReXlis2ODOMmrdLSNvamPIR66FQtXxpBKpRzTyY4Ahkn3zoLMXgqbE08hOXQXDjacu9XVyfnl3tGzZ+MAeRkndLTkpYOTUSm8GCaNG2w9dYDFwlO7ex6MvHq20NMOnOR1HP0Ddkfvwfrwp7G2soDj42NPjyXogzFMuke4WCxge+FVJEJnsDf7TygWso4M5uT8ckQQO2nqAHk1tce6leRlHZKmgoQXw2RTi7jSLQdYLNxy1p1+ycsdX93q1TFepVzlFtdk+AwWJn+Cne0t/rakw9AYJh02tKo7eaprKjKHyNAHkZr8vzjavVq1tvu3js2v7iVwzw4cIK8OzLJgU/KyAEIHEoQXw2QHhnFT5xxgsXDOSy96Ii8vXHZuDKd4FQ/XkLn4aUTC78XS1WHs7u46J5I9VRxgmHT3RDjcT2DnwjNIDL0Dh1svOzKYU/PLETHspKUD5NXSIqs2IC+rcLQUI7wYJlvaxA3ccIDFwg1X3euTvNzz1o2eneJlbnFdHfki1leuQH4Mni9nHWCYdNbP2t7y+Ryii7+rfOd3b+7rKOR6/wcRp+ZXrVZ+dscB8nLHV7d6JS+3nHWnX+HFMOmOt+y1hQMsFi0Msmw1eVkGpIUcJ3jJb0seLn8PidApLE79O7a3N/kU1xa+d7OaYbIb19rfR548vLszjcjw/UiNP4jj3Yvt79xgSyfmV4OuudgFB8jLBVNd7JK8XDTXha6FF8OkC8ayy9YOsFi09simLcjLJhqttTjBq7i/gMzFT2Jn8ENYnX0D8iPw8h00vpx1gGHSWT9re5Nz9nA/jsj015EMnUJ25397Po+dmF+1OvnZPQfIyz1v3eiZvNxw1b0+hRfDpHv+sucmDrBYNDHHwlXkZSGUJpJ651VGLvYaUkO3Y21UbnG9zKe4NvG7l1UMk724196+cnt2dPFlxEJ3In31qygcJdrbscFWvc+vBh1zsSsOkJcrtrrWKXm5Zq0rHQsvhklXrGWnrRxgsWjlkF3rycsuHq3U9MqrXMjgcPk7iIfOYHX6J4hGoygWi62G5fouHGCY7MK0DneRcze1cxk7o48gOXYO+b25Dnu4fvNe59f1vfGT2w6Ql9sOO9s/eTnrp9u9CS+GSbddZv91HWCxqGuLtQvJy1o0dYX1yqt4sIS9qY9ie/B+rM3+CXt7ez3fGlhXKBeCYdKbk+BwP4XopWeRCJ3GYeSPKJcKXQ/c6/zqemDu2JUD5NWVbb7tRF6+Wd/VwMKLYbIr67hTrw6wWPTqoLf7k5e3fvc6Wk+8yiXkEmEkB2/H2thTWFuZ4y2uvQJpsj/DZBNzHFwlt7rGl/4LscGzSF1+CsUenura0/xy8JjYVXsOkFd7PtmyFXnZQqI9HcKLYbI9r7iVww6wWDhsqMvdkZfLBjvcfS+8yoV9HC5/u/L9stXpH1ducS0Uur+K4/ChBa47hklvkMpTXVORK4iOfQLJoXchv7/U9cC9zK+uB+WOXTtAXl1b58uO5OWL7V0PKrwYJru2jzv24gCLRS/ueb8veXnveS8j9sKrdLSN9PkPYHvoQazMDvAW115AtLEvw2QbJjm0ycF+GtGLzyEROoODjf9Gudzd94B7mV8OHQq76cAB8urALAs2JS8LIHQgQXgxTHZgGDd1zgEWC+e89KIn8vLCZefG6JpXuYTj2B8qvy25ef5L2FhfxtHRkXPC2NMJBxgmT1ji2oLKU12X/hexoXurF3wtAAAgAElEQVSRvPB5lEvHXY3V9fzqajTu1KsD5NWrg97uT17e+t3raMKLYbJXF7l/Vw6wWHRlm287kZdv1nc1cLe8yqUcDmafRDT8Lqxc/AXi8Th4i2tXCNreiWGybat63lBudd2NryN+/qNIhk8jdxjpqs9u51dXg3Gnnh0gr54t9LQD8vLU7p4HE14Mkz3byA66cYDFohvX/NuHvPzzvpuRu+VVLh4iNXQHdobux9LcJPb397sZnvt04ADDZAdmObDp4eHhX251PY3dxR911WO386urwbhTzw6QV88WetoBeXlqd8+DCS+GyZ5tZAfdOMBi0Y1r/u1DXv55383I3fI62voVEgM3Y0Nucd3Y4C2u3Zjf4T4Mkx0a1uPm+XwekaXXEB+8C/Hh9wPlcsc9dju/Oh6IOzjiAHk5YqNnnZCXZ1Y7MpDwYph0xEp20qkDLBadOubv9uTlr/+djt4Vr3IJmemHK09xXb74a0gf8mPvfLnrAMOku/7W6z2VSiE69lEkB96G4/R8vU2aLutqfjXtkSvddIC83HTX+b7Jy3lP3exReDFMuukw+27oAItFQ2usXEFeVmJpKKobXsXsZuV/riND57C8cBGZTKZh/1zhnAMMk8552W5Pcqvr9qXvIhG6Cbuz/9Lubte262Z+XduZbzx3gLw8t7ynAcmrJ/s831l4MUx6bjsHFAdYLHSdB+QVfF7ZtR8hMXAjVs9/HVtbWzg+7u5Jl7qc8l8tw6T3DOSKe2R9AonwrUgO341ibq8jEayHHdnl+8bk5TuCjgSQV0d2+b6x8GKY9B1DfwpgsdDFnbyCzUsevJMev6/ykyALl/5Q+cceefIlX+47wDDpvsf1Rtjd3cXO6MeRDJ/Cwc6f6m3ScBnrYUNrrFxBXlZiaSiKvBpaY+UK4cUwaSWa4ItisdDFmLyCzSu/O4FU+DS2hz6CleUFPsXVQ9wMkx6aXTWUXHnfmPlPJEM3YHfmSZQ7eBAP62GVkQrekpcCSFUSyavKDAVvhRfDpAJQQZTIYqGLKnkFm9fBwteRDN2IhfPPY2dnh78t6SFuhkkPza4aSsLjztYKYqHbkRp7P473FqvWNn/LetjcH9vWkpdtRJrrIa/m/ti2VngxTNpGpU/0sFjoAk1eweVVOo5WbnGNh07j6swUksmkroNVrpZh0j+A8juqm+e/iOTg7dhf+2XbQlgP27bKig3JywoMbYsgr7atsmJD4cUwaQWK/hPBYqGLOXkFl9fxzm+RGr4TG8P/D6urq5AnXfLlnQMMk955XTuSPIhnc2EAyYEbsHf5i23f6sp6WOuk3Z/Jy24+terIq9YRuz8LL4ZJuxkFVh2LhS605BVQXuUS9mefQjJ0M65O/qZyiysfvOMta4ZJb/2uHS0W3UAk/G6kxj6IbGKidnXdz6yHdW2xdiF5WYumrjDyqmuLtQuFF8OktXiCLYzFQhdf8gomr8L+PNKT/weR8D2Yn70EecIlX946wDDprd+1ox0eZLB14Rtv3uq68hOgjQfxsB7Wumj3Z/Kym0+tOvKqdcTuz8KLYdJuRoFVx2KhCy15BZPX0dZ/Vm5xXRn9MtbXVvjbkj5gZpj0wfSqIeVW153lQcRDt2Dv8uMoHLf+zjDrYZWBCt6SlwJIVRLJq8oMBW+FF8OkAlBBlMhioYsqeQWPV7mwh/3Zf6j8T/TC9CuIRiNtf2dMlxt2q2WY9JePPNU1FVvG9ugjSI5+AEexcEtBrIctLbJqA/KyCkdLMeTV0iKrNhBeDJNWIekfMSwWuliTV/B45XfHkZ64H1uDD2JlfgKZTEbXQQZELcOk/yCzh3vYnvkhEqEzOFj5IcqlfFNRrIdN7bFuJXlZh6SpIPJqao91K4UXw6R1WPpDEIuFLs7kFTBe5SKONn6O1OAtWBn/JjbWlvjbkj4hZpj0yfiqYeVW19jaEKKD9yB98XPI769UrT35lvXwpCc2LyEvm+mc1EZeJz2xeYnwYpi0mVCAtbFY6IJLXsHiVTr6/+ydh3srxdn2vz8toZxK5xAI5Q0nCbwJPZBQcoAQQkgC5A0hnZJCaCckhBIIh45VLFfJluQiSy6ybPVqW7bq/V3P+uw5sizJKltmpEfXtZek1e7Ms/dvZzT37uzMOjZmfoSo9Wosej5ALBbjLq4mIWYzaZLwNdnSCMaZxBLWxx9Bwn4VdmJDNb/u/8j14X5NRF7DvESmsz825rVfE5HXEC82kyIT6uPYuLKQCy7z6i9exeQw0iPXIWi/Fyv+cZ5b0kS8bCZNFL8m6+3tLUTmXleeIc4Fnke5uFHz696PXB/u1UP0b8xLdEJ742Nee/UQ/RvxYjMpOqU+jY8rC7nAMq/+4VWtFJQurgnLxVicfBGrq0Hu4moiXjaTJopfk3WpVEJ8xYKI/RtITnwXxY1Aza97P3J9uFcP0b8xL9EJ7Y2Pee3VQ/RvxIvNpOiU+jQ+rizkAsu8+odXeWsZuenvIWy7Ecve/yKVSoG6+fHLHAXYTJqje32uNKprLhNDxPVzJCyHsJNwNJ1zkuvDevXE/s68xOZTHx3zqldE7O/Ei82k2Iz6NjquLORCy7z6hFe1gmLKgZT9UqyM/AjLAS/y+bxcB9dn0bKZFAfozs4OovOnEbNejszsU6gUMw2D4/qwoSzCrmRewqJpGBjzaiiLsCuJF5tJYfH0d2BcWcjFl3n1B69qKYetwG8Qs1yCZddLCIfD3MXVZLRsJk0GUJM9jeqaDHsQHb0DCccNKG02HtWV68Ma0ST4yLwkgFQTIvOqEUOCj8SLzaQEoPoxRK4s5KLKvPqDVzm/qswtuW7/NpbmvkQmk+EuriajZTNpMoC67HPZNKJTvwA9U7wV+g9QLddtAXB9uE8SoVcwL6Hx7AuOee2TROgVxIvNpNCI+jc4rizkYsu8+oBXtYJC7FMkrEexOvY4gst+bG9vy3VgfRgtm0mxoCpdXf3/Qcx2DVLOe1Gt7OwLkOvDfZIIvYJ5CY1nX3DMa58kQq8gXmwmhUbUv8FxZSEXW+YlPy8axVWdW3Jp6g1lbkkawZJf5irAZtJc/etzp8GokrEVxEZvR8J6BIXc/lFduT6sV03s78xLbD710TGvekXE/k682EyKzahvo+PKQi60zEt+XpX8GlL2S7A+/L9Y9E0il8uBRrDkl7kKsJk0V/9GuW9ubiLs/i0SliPIzP9m3yZcH+6TROgVzEtoPPuCY177JBF6BfFiMyk0ov4NjisLudgyL/l5bQdfRdxyBMHxZxBaXeUuroIgZTMpCIiaMOiOfWRlBHH7CSTsV+17rpjrwxqxJPjIvCSAVBMi86oRQ4KPxIvNpASg+jFErizkosq85OeVHrseUeuVWHCfQTKZ3NdAlusI+ydaNpNiskynU4iMfg/JoQuwsXZmT5BcH+6RQ/gvzEt4RHsCZF575BD+C/FiMyk8pv4MkCsLubgyL7l5FTOTSA59FevDt2FxcREbGxtyHVAfR8tmUky4NDjV2sxpZVTXpOshoKZLONeHYjJrFhXzaqaMmOuZl5hcmkVFvNhMNlOH1+uqAFcWusqreeLMS3NJdU1wD69qBRuzjyMxdBEWJ/6MSCSCYrGoa/6cePsKsJlsXysjt6TniaPhFcRtVyJlO4LCxvK57PeUr3Nr+YOoCjAvUck0jot5NdZF1LXEi82kqHT6PC6uLOQCzLzk5VXZDiNlO4qY9Ur4ZieQTqd54B2BcLKZFAhGXSg0SFVo8mkkLRcht/i3c79yfXhOCik+MC8pMJ0Lknmdk0KKD8SLzaQUqPovSK4s5GLKvOTltb36BpKWi7HseATBYBD5fF6ug+nzaNlMiguYBuIJBWyIWw4jPfkdlIu73cO5PhSXWaPImFcjVcRdx7zEZdMoMuLFZrKRMrxOdwW4stBdYk0zYF6ayql7YiqvajmPrOtO5bmvuamPlLkly+Wy7vlzBu0rwGayfa3M2JLKEk2nkxq+ClvRISUEtXyZEQ/n2bkCzKtzzczcg3mZqX7neRMvNpOd68Z7aKAAVxYaiGhgEszLQLE1yErlVUyNIO24Guu2k/D7/chmsxqkzkloqQCbSS3V1D4tGogn6Nm9u5+d/QWqlSLU8qV9bpyiHgowLz1U1S9N5qWftnqkTLzYTOqhLKd5oAJcWRwokVAbMC+hcBwYjMpr0/cMktaL4Rv/M0KhEA+8c6Byxm/AZtJ4zTvJkQbiCYd8iFi/hvTErShkfWwmOxFQgG3V+lCAUDiENhRgXm2IJNAmxIvNpEBABikUrizkos285OOVDI0jM3kroparMO8dQzwel+sgBiRaNpPig85lUwhN/BxJ2yXYXH6NzaT4yPZEyP9fe+QQ/gvzEh7RngCJF5vJPZLwF6MU4MrCKKW1yYd5aaOjUakQr+jsy0g7rsSS4zGsLAewtbVlVPacTwcKsJnsQCyTNi2Vigj5PkXCcgi5mccRCy8hk8mYFA1n26kC/P/VqWLmbs+8zNW/09yJF5vJTlXj7TVRgCsLTWQ0LBHmZZjUmmSUjK1gffQ+JIcuwLzrP1hfX9ckXU5EewXYTGqvqdYpUlfXZNSPdcftSI7ciNXZd9hMai2yjunx/5eO4uqQNPPSQVQdkyRebCZ1FJiTbq4AVxbNtRHxF+YlIpXmMeXWvkTMfj1C9jux6Jvghm9zqUz/hc2k6QjaCmBrI4M179+Vu5OrE88gk062tR9vZL4C/P9lPoNOImBenahl/rbEi82k+RwGMgKuLOTCzrzk4UWjTW4t/RUJyxH4x/6AUHCRB94RGB+bSYHh1IRGU+pEV4YRsdFFmtuQjXlrfuWPIivA/18i09kfG/Par4nIa4gXm0mRCfVxbFxZyAWXecnDq5xfQc77ECLWaxHwfKQMvEPd9PglpgJsJsXkUh9VpVJBJhnE+uQTiFkuxebah6hWec7Wep1E/M7/XyJSaR4T82qujYi/EC82kyKSGYCYuLKQCzLzkoRXtYJC7HOkHVdhxfEIVgJTPPCO4OjYTAoOqCa8ne08Ir63ELdehtz8L1He4a6uNfII+5H/v4RF0zAw5tVQFmFXEi82k8Li6e/AuLKQiy/zkoNXtZjBlv85hL84jsDk37C+HkKpVJIj+AGNks2kPOCpq2tifQrhkbuQHLkJxeysPMEPcKT8/yUXfOYlHy82k3Ix65toubKQCyXzkoNXKTeLzNhNWPjkJOamPlEG3qHuefwSVwE2k+KyqY+Muotv5tIITz2H+NBhbAb/gWp5u34z/i6YAvz/JRiQA8JhXgcIJNjPxIvNpGBQBiUcrizkIs28xOdVrexge+0tZeCdqU9/BK9nGjs7O+IHPuARspmU6wQoFApYmXkfq19ci9Tk3SjvxOQ6gAGMlv+/5ILOvOTjxWZSLmZ9Ey1XFnKhZF7i86oU4sh57kfYegOc1pextLQE6pbHL7EVYDMpNp/66Oju5PLiPAJDdyFpuQA7iVGAB7iql0mo7/z/JRSOA4NhXgdKJNQGxEsXM0mNmJMnT+LEiRO4++67W85xpm7rdDr3iKOub5VGMBhU8qCDoIPhlzwKcGUhDyuKlHmJzquKUmYayaGvYnX4PoyPDCEcDoNHcRWdG8BmUnxG9RGGQiHMj/4JMesVSHt/hmqlUL8JfxdIAf7/EghGG6EwrzZEEmgT4qW5mcxkMoqBVM3h+++/jyeffHJfdyt1u1OnToEWdXvSR/1NXdcsDTaTAp1NHYbClUWHgpm8OfMyGcAB2dPckpsLv0TMcjmWnS/B6/UqU4IcsBv/LIACbCYFgNBhCJFIBAszNkQdtyBhuwzlnXiHKfDmRirA/19Gqt17Xsyrdw2NTIF4aW4myQDWmkcyhmQW6U5joxc900Pbq8aRtmk3DTaTjRSVYx1XFnJwUqNkXqoSYr5XdqJIDV+Odfu3EJi1IRAIIJ1OixksR7VHATaTe+SQ4gvVh6urq4i4foGE5RByS69IEfegBsn/X3KRZ17y8dLcTNJdRFrUVyOzqP5G741+bzcN1Uz+5Cc/UcwqGVde5NCALi7QnzHzYl58DvR+DuSWXkf8y4vhszwKj8eDmZkZLl+S/B9MTk7il7/8pfK/GY1GuU6UgBv9f/n9fvimPkDUciWSI99AJhVhdoKy4/ZG7/8xRv5PMy/5eJEPo8cSyZd1+/p/tTs+//zzPZvJdtNQzeTjjz+OhYUF5bkuuqLBi/gaEC+qMJiV+KyIEfMSl1M8soKo/QZEhi7HtONN+Hw+zM3NcfmS5L9gbGwMzzzzDN577z2sra1xnSgBN6oPFxcXEfDPY91xN5JDFyA09w6zE5Qd/3+J+//VqA3IvOTjRT5MUzPZ7l1F1YBqcWeSB+BR1ZTnnSoQutLFLzkUYF7icirEPt9tzDruw2JgDhsbG0qjlsuXuMxqI+NurrVqyPFZrQ+3trYQmnkTCcvFSDu/J0fwAxilymsAD13KQ2ZecmEjXrp0c6U7i+qLGjSdPjNJhrSdNNQ7k2wmVbXleefKQh5WFCnzEpdXzv19JIYuxoLzDWUEV5oHj3mJy6s+MjaT9YqI/10tX5VKBdHwEiK265G0HcNOakr84AcwQpXXAB66lIfMvOTCRrw0N5P15rHWGNLAOvVThTS6M9kqjVqJ2UzWqiHXZ64smJdcCogZbSnnRcp+CaLWazA/50YqlVKmA+HyJSavRlGxmWykitjrassX9QQIuv6IpOVCZGZ/KXbgAxpdLa8BlUCqw2ZeUuFSLl5rbiZJAjKN1HeWltqRXds1k63SqJWYzWStGnJ95sqCecmlgJjRbvmeURqxgdFfg+a+297eVgLl8iUmr0ZRsZlspIrY62rLV7lcRmhlFnHLYaTH/gfl7aTYwQ9gdLW8BvDwpTtk5iUXMuKli5k0SgY2k0YprX0+XFlor6meKTIvPdXtLu3KTgyZsRsQtxzDjGdCmVeyWq0qiTGv7jQ1Yy82k2ao3lue9eWLpuEJjTyodHXdWHq5t8R5b80VqOeleQacoKYKMC9N5dQ9MeLFZlJ3mTmDRgpwZdFIFXHXMS/R2FSxvfqG0sV1xfGwMnIrdbdTX8xLVUL8dzaT4jOqj7C+fNFzysEFhzLnZHb6B6gUs/W78HcTFajnZWIonHUbCjCvNkQSaBPixWZSICCDFApXFnLRZl5i8aoUUshN36fclZx1fYhIJALqbqe+mJeqhPjvbCbFZ1QfYaPyFY+uYW34dqRGrkM++kX9LvzdRAUa8TIxHM76AAWY1wECCfYz8WIzKRiUQQmHKwu5SDMvsXgVYp8iPXItgva7EFiY3TfNDvMSi1eraNhMtlJHzN8ala98fhOrnteRsBxBbv4pVEpbYgY/gFE14jWAMkhzyMxLGlRKoMSLzaRczPomWq4s5ELJvMThVS1tYHP+F0hYjsI38QpCq0EUi8U9ATKvPXII/YXNpNB4GgbXqHwp04SEvIjYTyI9cSt2Us6G+/JK4xVoxMv4KDjHdhVgXu0qJcZ2xIvNpBgsBi4KrizkQs68xOFVykwhO/m/WLN9G/65ESST+0ePZF7i8DooEjaTBykk3u+NyhcNfpXLJrA2/UckrUewtfwyqpWCeMEPYESNeA2gDNIcMvOSBpUSKPFiMykXs76JlisLuVAyLzF4VSs7yK/8DSnrEQRGnsXKkg80V2/9i3nVKyLudzaT4rJpFlmz8lUsFhBeHELUdh0yU/ehuOFvlgSvN1CBZrwMDIGz6kAB5tWBWAJsSrzYTAoAYhBD4MpCLurMSwxe5c1F5Nz3I2y7AQHPGcRiMajTgdRGyLxq1RD7M5tJsfk0iq5Z+aKurqn4CtYmn0TSdhzb4f8C1fMDYzVKi9fpr0AzXvrnzDl0owDz6kY18/YhXmwmzdN/oHPmykIu/MxLDF6F6MdI2Y5gyfEjLAfc2NzcbBgY82ooi5Ar2UwKiaVlUK3K187ONtbn30HUciUyMz9DeTvWMi3+UX8FWvHSP3fOoVMFmFenipm7PfFiM2kug4HNnSsLudAzL/N5VXZi2Jj7KWKWy7E49QZCoRBKpVLDwJhXQ1mEXMlmUkgsLYNqVb5oip74mhvro/ciYbsEhfREy7T4R/0VaMVL/9w5h04VYF6dKmbu9sSLzaS5DAY2d64s5ELPvMzmVUUxNYqU/VIEh+/Dkm8U2Wy2YRdXipR5mc2r/fzZTLavlShbtipf1O18Y2MD656/KPPA5gLPo1Jq3INAlOPp9zha8er3Y5fx+JiXXNSIF5tJuZj1TbRcWciFknmZy4umA9la/ANilkuwNPkiVldXGw68o0bJvFQlxH9nMyk+o/oIDypfNFVPdGUEEcctSI7ciNLmUn0S/N1ABQ7iZWAonFUbCjCvNkQSaBPixWZSICCDFApXFnLRZl5m8qqivBlAZvR6rNluRWDmS6RSKVB3umYv5tVMGfHWs5kUj8lBER1Uvmggnkw6gbDraSQsh7AVPA1UG3dJPygv/r13BQ7i1XsOnIKWCjAvLdXUPy3ixWZSf505hwYKcGXRQBSBVzEvE+FUS9gO/h1xy2GsjP0CK8uLyOfzLQNiXi3lEepHNpNC4WgrmHbK1/b2NsKBzxGzX4/k6M2oFrNtpc0baa9AO7y0z5VT7FYB5tWtcubsR7zYTJqj/cDnypWFXKcA8zKPV7WYQWb8JoStN8Dv+QjxeLzpwDtqlMxLVUL8dzaT4jOqj7Cd8kV3J5OJCMLjp5CwHEZ+7YP6ZPi7QQq0w8ugUDibNhRgXm2IJNAmxIvNpEBABikUrizkos28zOO1s/a20hhdHTmFxYBPGdyj0dyStREyr1o1xP7MZlJsPo2ia7d8bW1tITT/H8StVyA5fmujpHidAQq0y8uAUDiLNhRgXm2IJNAmxIvNpEBABikUrizkos28zOOVmfgmopYr4HO9jUgkgkKhcGAwzOtAiYTZgM2kMCjaDqTd8kV3J+OxdUQdtyJpuQj5mKXtPHhD7RRol5d2OXJKvSjAvHpRz/h9iRebSeN15xx56gLpzgGu3M1BVoh9juTQBVi334oF37wyHUg7kTCvdlQSYxs2k2Jw6CSKTsoXTROy4n4dCcvFSE7c2Uk2vK1GCnTCS6MsOZkeFGBePYhnwq7Ei82kCcJzljwPnmznAFfuJhCrVpB13obE0CH4Jl/H+vo6aFCPdl7Mqx2VxNiGzaQYHDqJopPyRXcnw+EwYrYTSFkPo5Ce6iQr3lYDBTrhpUF2nESPCjCvHgU0eHfixWbSYNE5u10FuLKQ60xgXsbzKqZGlcbnuu0k5ubmlOlADnpWUo2SealKiP/OZlJ8RvURdlq+crkcgq4XkLRciIz7EaDafFqf+rz4e+8KdMqr9xw5hV4UYF69qGf8vsSLzaTxunOO3M1VunOAK3eDkVWK2PA+rDxntTD2EkKh0IHTgdRGyLxq1RD7M5tJsfk0iq7T8lUqlRAKBhC1nUB65FoUs3ONkuV1OinQKS+dwuBk21SAebUplCCbES82k4LAGLQwuLKQizjzMpZXKetGeuRrCNtuxKx3CqR/u3clKVLmZSyvXnJjM9mLeubs2035SqfTCE4+h6T1MDZ8vwIqBw+kZc7R9V+u3fDqPxXkOSLmJQ8ripR4sZmUi1nfRMuVhVwomZdxvKqVHWz6nkbKeggLY39CMBgETTHQyYt5daKWuduymTRX/25y76Z8FYtFrC5OIWL9GjIT30YxN99N1rxPFwp0w6uLbHgXjRRgXhoJaVAyxIvNpEFiczZ7FeDKYq8eon9jXsYRKmWmkBm/GWHbDZjzOBCLxUCDeHTyYl6dqGXutmwmzdW/m9y7LV/pVByrzueQtB3H5vLfgGqpm+x5nw4V6JZXh9nw5hopwLw0EtKgZIgXm0mDxOZs9irAlcVePUT/xrwMIlQtIb/0AlK2o1gY/QOWlxexubnZcebMq2PJTNuBzaRp0nedcbfli+aIXVu0I2q9GhnX3Xx3smsCne3YLa/OcuGttVKAeWmlpDHpEC82k8ZozbnUKcCVRZ0ggn9lXsYAKuVmkHXdoXSF83m+UKYD6eRZSTVK5qUqIf47m0nxGdVH2G35orKcjIewOvELJG3HkA/9sz5p/q6DAt3y0iEUTrINBZhXGyIJtAnxYjMpEJBBCoUrC7loMy8DeNFdyZWXlWcl/Y6nsLw4B5rwvJsX8+pGNXP2YTNpju695NpL+drZ2UFo4TNErCeQ9TyM0tZqL6Hwvm0o0AuvNpLnTTRWgHlpLKjOyREvNpM6i8zJN1aAK4vGuoi6lnnpT6a86Udu+j5ErNfBN/1h13clKVLmpT8vrXJgM6mVksal00v5KpfLiId9WBt7GAnrMWxHPgJQNS74AcypF14DKJfph8y8TEfQUQDEi81kR5LxxlopwJWFVkoakw7z0lnnahk74feVgTkWR57EUsALmui8my6uFCnz0pmXhsmzmdRQTIOS6rV85fN5rM29jZjlcuS8j6K8vW5Q5IOZTa+8BlM1846aeZmnfTc5Ey82k90ox/v0rABXFj1LaGgCzEtfucv5EHKeBxG1XIXFqX9ibW0NNJVAty/m1a1yxu/HZtJ4zXvNsdfyVSqVEF+fw/rYD5G0XYKd2BdAtdxrWLx/EwV65dUkWV6tkwLMSydhdUqWeLGZ1ElcTra1AlxZtNZHtF+Zl45EKkXsRD9SGpUrjlNYXHAim812fVeSImVeOvLSOGk2kxoLakByvZYv6nFAz0OvzfwDMetVyHofQ6WQMiDywcyiV16DqZp5R828zNO+m5yJF5vJbpTjfXpWgCuLniU0NAHmpZ/clUIcOff3EbFeg4DzdYRCIdAUAr28mFcv6hm7L5tJY/XWIjctyhf1PIiE5hAe+z6S9itRSE/ys5NawGmQhha8GiTLq3RSgHnpJKxOyRIvNpM6icvJtlaAK4vW+oj2K/PSiUi1gkLsEyStxxAcfgD+eSfS6TQqlUpPGTKvnuQzdGC9jH4AACAASURBVGc2k4bKrUlmWpQvujtJz0Wvef6MuOVSZL1PoFrp7SKSJgfXh4lowasPZRH2kJiXsGgaBka82Ew2lIZX6q0AVxZ6K6xt+sxLWz3V1KqVbWRdtyFquRoB52vKXcnt7W31567fmVfX0hm+I5tJwyXvOUOtypdyd3LVg8jId5C0Hkcx6+k5Nk5gvwJa8dqfMq/RQwHmpYeq+qVJvNhM6qcvp9xCAa4sWogj4E/MSx8oxYwTScshhIbvgW/eo8ldSYqUeenDS49U2Uzqoaq+aWpVvujuZDabQWj6BcQtx5Bx/1DfwAc0da14Dah8hh828zJc8p4yJF5sJnuSkHfuVgGuLLpVzpz9mJc+uuem70XMchkWnKeVEVy1uCtJkTIvfXjpkSqbST1U1TdNLcsXPR+9vrqA6PA3kLRciGLWrW/wA5i6lrwGUD7DD5l5GS55TxkSLzaTPUnIO3erAFcW3Spnzn7MS3vdi+kJJIe+ijX7bZibm0MqleppBNfaCJlXrRpif2YzKTafRtFpXb7oOekV10tIWC5GxnUfUO3tmelGMQ/yOq15DbKWRhw78zJCZe3yIF5sJrXTk1PqQAGuLDoQS4BNmZe2EKqVHeSm7kHccgRzE29idXUVWt2VpEiZl7a89EyNzaSe6uqTttbli+5Orq0GELVfj5T1MArJEX0CH9BUteY1oDIadtjMyzCpNcmIeLGZ1ERKTqRTBbiy6FQxc7dnXtrqX4h9hpT1EEK22zE7O6vpXUmKlHlpy0vP1NhM6qmuPmnrUb6Uu5NTLyNpuQhZ90Oolrf0CX4AU9WD1wDKaNghMy/DpNYkI+LFZlITKTmRThXgyqJTxczdnnlppz/NK5l13YWE5TBmJt7R/K4kRcq8tOOld0psJvVWWPv09ShfNLJraHURYfvNSA1fiZ3YF9oHPqAp6sFrQKU05LCZlyEya5YJ8WIzqZmcnFAnCnBl0Yla5m/LvLRjsB06jZT9EgTt9yp3JZPJpGbPSqpRMi9VCfHf2UyKz6g+Qr3Kl3J30n1audCU8z6KSjFTnzV/70IBvXh1EQrv0oYCzKsNkQTahHixmRQIyCCFwpWFXLSZlza8yvkQssqzkscwO/mBcldyZ2dHm8RrUmFeNWII/pHNpOCAGoSnV/kqlUpYC/qwbv8O0iPXYif6aYPceVWnCujFq9M4ePv2FGBe7ekkylbEi82kKDQGLA6uLOQCzry04aXclRy+DMv2h+BfmIUedyUpUualDS8jUmEzaYTK2uahZ/nKZNIIet5EwnIEuZkfo7wT1Tb4AUxNT14DKKfuh8y8dJdY0wyIF5tJTSXlxNpVgCuLdpUSYzvm1TuH8tYKcu77Ebccx5zzP8pdSXpOSo8X89JDVX3SZDOpj656pqpn+SqXy1gLzmB15EGkhq/A9vp/9DyUgUhbT14DIaDBB8m8DBa8x+yIF5vJHkXk3btTgCuL7nQzay/m1bvy22tvIWU/jqXhR7C4MK2M4Np7qo1TYF6NdRFxLZtJEam0jknv8rWxkUNw9n3ELceQ8z4C6h7Pr+4V0JtX95Hxno0UYF6NVBF3HfFiMykun76OjCsLufAyr954lTf9yE3fh5jlUsw7d0dwpeej9HoxL72U1T5dNpPaa6p3inqXL7o7GQnNYnXkFJK249iJfgSgqvdh9W36evPqW+FMOjDmZZLwXWZLvNhMdike79abAlxZ9Kaf0Xszr+4Vr1Z2sL36BpLWI1h0/AyBBbfm80rWR8e86hUR9zubSXHZNItM7/JVrVaxsbGBtbm3EbNegZz3Yb472QxGG+v15tVGCLxJBwowrw7EEmBT4sVmUgAQgxgCVxZyUWde3fKqgu5KZl13IGy9AQtT72BtbQ16PSupRsm8VCXEf2czKT6j+giNKF9UR0TW5rE2/mMkrEexvf4eqpVCfSj8vQ0FjODVRhi8SZsKMK82hRJkM+LFZlIQGIMWBlcWchFnXt3xqpbz2A6+ioT1GJZHnsCi34NsNqv5vJL10TGvekXE/c5mUlw2zSIzonzR3clcLofVufcQsX0dWdedKG+vNQuJ17dQwAheLbLnnzpUgHl1KJjJmxMvNpMmQxjU7LmykIs88+qGVxXljQVkRq/Huu0b8E9/gPX1dRQK+t9dYF7d8DJnHzaT5ujeS65GlS96rjoaXtq9O2k5inzoX0C13EvoA7mvUbwGUlwdDpp56SCqjkkSLzaTOgrMSTdXgCuL5tqI+Avz6oJKtYj80vOIW45ieexpBPzzyl3JSqXSRWKd7cK8OtPLzK3ZTJqpfnd5G1m+Njc3EfJ9iqj9eqRHr0dlJ9Jd0AO8l5G8BlhmzQ6deWkmpSEJES82k4ZIzZnUK8CVRb0iYn9nXp3zKeW8SDmuxLr9m1jwfI5oNGrIXUmKlHl1zsusPdhMmqV89/kaWb5oZNd4LIzQxM+QsBzC5uLz3Qc+oHsayWtAJdb0sJmXpnLqnhjxYjOpu8ycQSMFuLJopIq465hX52w2vA8r88Qtjv8OiwG/8vwTPQdlxIt5GaGyNnmwmdRGRyNTMbp8bW1tYdU/otydTNmOo7Qxb+ThSp+X0bykF8zkA2BeJgPoMHvixWayQ9F4c20U4MpCGx2NSoV5daZ0MTWCpOVChG03YtYzjng8Dj3nlayPjnnVKyLudzaT4rJpFpnR5Yu6xicTCaxM/g6JoYuQdZ9qFhqvb6CA0bwahMCrOlCAeXUglgCbEi82kwKAGMQQuLKQizrz6oBXtYTM+M1IDB3C/MRrWFlZUeaM6yCFnjdlXj1LaFgCbCYNk1qzjMwoX/l8HqvLPsRsJ5CyHkYhOazZ8fR7Qmbw6ndN9Tw+5qWnutqnTbzYTGqvK6fYhgJcWbQhkkCbMK92YVSRX/k7kpaLsGa7FbOzs8rzi0belaRImVe7vMzfjs2k+Qw6jcCs8pVKpbA49SYSlouRcd6Jammj09AHcnuzeA2k2BocNPPSQEQDkyBebCYNFJyzOq8AVxbntZDhE/Nqj1J5a0W5Kxm3HIN38kOsrq6Cnncy+sW8jFa8+/zYTHavnVl7mlW+aFohqlNCw3cjZb8E+eDrQFX/0aHN0lmrfM3ipVX8g5YO85KLOPFiMykXs76JlisLuVAyr4N5Vct5bPmfVbqgLQ4/Dp/Ph2QyCaMG3amNkHnVqiH2ZzaTYvNpFJ2Z5SubzWJx9lPErJcj47wNpc1AoxB5XY0CZvKqCYM/tqkA82pTKEE2I15sJgWBMWhhcGUhF3HmdTCvYsqBzNiNiFivx8yUFevr64ZNBVIfHfOqV0Tc72wmxWXTLDIzyxdNFRJeX0Vw/CmkbEexGfg9d3dtBursejN5HRAa/9xAAebVQBSBVxEvNpMCA+rn0LiykIsu82rNq1JIYnP+50jajsI3+icsLfqRyWRMuStJkTKv1rxE+pXNpEg02ovF7PJFXedXfHaEbTcjM34SheRIe4EP6FZm8xpQ2bs+bObVtXSm7Ei82EyaIj1nypWFXOcA82rBq1rGTuQDpEeuQdB+D+a9wwiHw6A7CGa9mJdZyneeL5vJzjUzew+zyxdNFRKPrWPF9SIS1qPY9D2Nyk7MbFmEzd9sXsIKI2hgzEtQME3CIl5sJpuIw6v1VYArC3311Tp15tVc0fLWEnKehxC3Xo75idNYWV4yZdCd2giZV60aYn9mMyk2n0bRiVC+dna2EVocx5qDBuO5DDvRj4CqeRewGukkyjoReImihQxxMC8ZKJ2PkXixmTyvB38yUAGuLAwUW4OsmFdjEauVArZXTyNpuRBLw4/CP+9ELBYzrXurGiXzUpUQ/53NpPiM6iMUoXzR3cl0OoVV778QtVyJnPsHKOeD9aHyd+72L905IEL5kk40EwMmXmwmTQQwyFlzZSEXfebViFcVpaxHGXQnbLsJPte7yrD9NHy/2S/mZTaB9vNnM9m+VqJsKUr5KhaLWAvOIzT2GJJDX8X22j9RreyIIpMwcYjCSxhBBA+EeQkOqC484sVmsk4U/mqMAlxZGKOzVrkwr/1KVosZbPqfQ8JyBIujv4LfP490Og26Y2D2i3mZTaD9/NlMtq+VKFuKUr5o2qGNjQ2szp1B2P4/SI/eiNLGAoCqKFIJEYcovIQQQ4IgmJcEkGpCJF5sJmsE4Y/GKcCVhXFaa5ET86pTsVpBIT6ElP1yhOx3YMHzualTgdRFx6O51gsi8Hc2kwLDaRKaSPVhqVRCNLKGVeevELccxcb8L0Bz3vLrvAIi8TofFX9qpgDzaqaMmOuJF5tJMdn0fVRcWciFmHnt5UUjJ2ZdtyFqvRoLk3/H0tKScoeA7hSI8GJeIlBoLwY2k+3pJNJWopUvmipkddGJdccdSFiPoBD/UiS5TI9FNF6mCyJ4AMxLcEB14REvNpN1ovBXYxTgysIYnbXKhXntVTK/8lckLBcj6DgF35wL8XgcdIdAlBfzEoXEwXGwmTxYI9G2EK180TREqVQKQc+biFsvU+aerOxERJPNtHhE42WaEJJkzLwkAXU2TOLFZlIuZn0TLVcWcqFkXud5FdNOpB1XIWK7AfNTHyIUCiGfF6tbGfM6z0v0T2wmRSe0Pz4Ry9fOzg7WQ8tYHX0UyaELsOF7Zn/gA7pGRF4DiqKtw2ZebckkzEbEi82kMDgGKxCuLOTizbx2eVWLWWSn7kJi6CL4x/4Iv98nzKA7tWcU86pVQ+zPbCbF5tMoOhHLF3Wxz2azWF4YV7rfp+yXopCwNQp/4NaJyGvgIHRwwMyrA7EE2JR4sZkUAMQghsCVhVzUmdcur/zK35CyHsKa/TbMeJyIRCIQYSqQ+rOJedUrIu53NpPismkWmajli7q70jy3/smXlalCss7voLITbXYYA7NeVF4DA6DDA2VeHQpm8ubEi82kyRAGNXuuLOQiz7yAUm4G6dGvKwNcTE8OKXNK0rD8Ir6Yl4hUGsfEZrKxLiKvFbl8UXfX1eAyVoYfQMp2FFuLL4gspSGxiczLEAEky4R5yQWMeLGZlItZ30TLlYVcKAedV7W0iZznQSQtF8E/8iv4fD5l0B1RRm+tP5sGnVe9HiJ/ZzMpMp3GsYlevmi+28D8GKKWq5AZuxHFpGOg554UnVfjs2xw1zIvudgTLzaTcjHrm2i5spAL5SDzqlaK2A6+itQwzSl5O7xuJ8LhsJDdW9WzapB5qRrI8s5mUhZS5+MUvXxVKhVEIusIOP+OhOUIcjM/GujurqLzOn9m8SdSgHnJdR4QLzaTcjHrm2i5spAL5eDyqqKYcSIzeSui1mswO/kulpeXlYEuRCY4uLxEptI4NjaTjXURea0M5YtGmF5d9iDk+D5S9suRD76KalmsUaeNYiwDL6O0kCEf5iUDpfMxEi82k+f14E8GKsCVhYFia5DVoPKiudo2555EwnocgZFn4fd5lO6tdOVf5Neg8hKZSbPY2Ew2U0bc9TKUL+qCn04lsTL7kTKNUWbiWyimRoFqWVxhdYpMBl46HbqUyTIvubARLzaTcjHrm2i5spAL5SDyqpa3sb32FlLDVyI4fB/m3Vasra0J3b1VPasGkZd67LK9s5mUjZg83fBKpRKi4SCCrj8ibr0MG7M/QWU7Ip/gPUbM9WGPAhq8O/MyWPAesyNeupjJpaUlnDx5EidOnMDdd9+NTCbTMNRW2z3//PPK/pQGLfS9/hUMBpXf6CDoYPgljwJcWcjDiiIdPF5VlHJeZCa+jYjteiw4/4HlpUXkcjmIOuhO7Rk1eLxqj16uz2wm5eJF0cpSvqiu2trawuqiE2sjDyBpv/Rsd9ct+UTvIWJZePVwiH21K/OSCyfx0txMknEkA+l0OhU13n//fTz55JOg4aprX622o21pHzWN2v1qP7OZrFVDrs9cWTAvkRWoFNPYnHsCceslWBx5BgvzbqUBSfO4yfDi8iUDpd0Y2UzKw0qNVKbyRV3yM+kUlmfPIGy7GWnH1ShlJgdqdFeZeKnn2CC/My+56BMvzc0kGcBa80im8dSpU6C7kLWvVtuRmXz22Wf37VO7P31mM1mviDzfubKQhxVFOlC8qiVsr76GpO0oVofvxZxnROneWn9BTGSCA8VLZBBtxMZmsg2RBNtEtvJVLBYRjaxhxfUCYpbLkHHdhWpl7wV+wSTWNBzZeGl68BImxrzkgka8NDeTdCeSFvXV7C5jq+3Uu5ZqF9dac6qmS++qmXzkkUcwPj6OhYUFXiTRgHjRBQVmJsc5O0i8FmeHkLBeguBnJ/DFf1/EF198AZfLpcwtKcv5Oki8ZGHSLM7PP/8cTz31FN588014vV6uEyX4D5OxfE1PT8PyxRksfPYdJIYuwvrETwfmXJORV7P6YhDWMy852oXquUi8yIeRZyNf1u3r/9XuSM82tmMm292O0qZt+ZnJWpXl/8xXnuRiOCi8qpUCMuM3I245hsDYc4qBTCaToIEsZHoNCi+ZmDSLle9MNlNG3PUyli96fpIu1Adm7YjarkNy6CsopscGorurjLzEPfv1j4x56a+xljkQLyHvTNYfJHWRpa6yVBHWvtQ7k3QQdDD8kkcBrizkYUWRDgIv6va16XsayaELsDr8fcx4XQiHw9je3pYL1oDwkg5Kk4DZTDYRRuDVstaHhUIB0WgUS86XlQtmacdVKOdDAiutTWiy8tLm6OVLhXnJxYx46WIma+8iNntmku5etrMdScpmUq4Tq51oubJoRyVxtul7XtUKdqIfImU9hIj16/BODSndNTY2NqQYvbX+TOl7XvUHLPF3NpPywZO5fNHornQhfmX0J0haLsLGzGOoFFPyQeggYpl5dXCYfbMp85ILJfHS3EzWm8da00jPyKlThbTajn5TB7tQn7msNZ6qzHxnUlVCvneuLORi1u+8SpkpZMZuRMx6GebGX4Pf70cqlYIso7fWn039zqv+eGX+zmZSPnoyly+1u+uibwoh+3eRsh1HfuWvqJbz8oFoM2KZebV5iH21GfOSCyfx0txMkgRkGhsNnlNrJlttR2aSTKeaRiMjSfuzmZTrhKuNliuLWjXE/9zPvMr5IDY8DyFpPQL/yLOYm5tDLBYDdQmT9dXPvGRl0ixuNpPNlBF3vezliy6SxeNxBLyfIGK9HunRr6MQ+xyoyjH1Uadnhuy8Oj1e2bdnXnIRJF66mEmjZGAzaZTS2ufDlYX2muqZYr/yqhQz2Ar8HinbMawMPwSve1yZBiSfz0vZvVU9B/qVl3p8/fTOZlI+mv1Qvuhi2draKhZdryg9MrJTd6OU9cgHo42I+4FXG4fZN5swL7lQEi82k3Ix65toubKQC2Vf8qqWsRN+T5nEe812C7yTZ7CyvIxsNiu1kaQzqy95yVVk2o6WzWTbUgmzYb+UL+X5yaV5LI8+haT1GDbnf4HKdlgYnbUKpF94aaWH6OkwL9EJ7Y2PeLGZ3KsJfzNIAa4sDBJao2z6kVcp40J24tuIWa/G3NjrCPgXlK5flUpFI9XMS6YfeZmnpr45s5nUV189Uu+X8rX7/GQay74RBIfvQ8p2FNuh06iW5RvBuhXnfuHV6hj76TfmJRdN4sVmUi5mfRMtVxZyoew3XuX8KnKeB5C0HIJ/5NfwzXuxvr4u3XySzc6ifuPV7Dj7YT2bSfko9lP5oucnY7EolrwfIGy7CSn7JSgmh4Gq/BfV1DOrn3ipx9TP78xLLrrEi82kXMz6JlquLORC2U+8qqUctpaeV+aTXB5+ELOeYWUwLxnnk2x2FvUTr2bH2C/r2UzKR7LfyheNmh8KhbDsfAkxy6XIjJ8EDUzWL69+49UvXJodB/NqpoyY64kXm0kx2fR9VFxZyIW4b3hVitgJv4uk7RjW7N/FnOtDLC8vI5fLoR+6t6pnVd/wUg+oj9/ZTMoHt9/KF3V33dzcxMpyAMHxnyNuOYwN70OoFJLywWkQcb/xanCIfbWKecmFk3ixmZSLWd9Ey5WFXCj7hVcxNYb0yLWI2G6Ab/I0AoGA1PNJNjuL+oVXs+Prp/VsJuWj2Y/liy6m0bRsSwsuhBz3IzF0EbYCv+2L+Sf7kZd8pab9iJlX+1qJsCXxYjMpAokBjIErC7mg9wOvUm4WmYlvKcPgB8b+AN/8jDKfJHXx6rdXP/DqNybNjofNZDNlxF3fr+WrWCwqI0Evzn6Jdfstyty726E3gGpJXBhtRNavvNo4dCk3YV5yYSNebCblYtY30XJlIRdK2XmVt1aQm7oHiaELsTj6NGa9LmXAHdnnk2x2FsnOq9lx9eN6NpPyUe3n8kUX18LhMBbdbyNqvUoZkGcnckZqQ9nPvOQrPQdHzLwO1kikLYgXm0mRiAxQLFxZyAVbZl7VYhobsz9B0nIhVoZPwTs9itXVVWxsbPTVc5K1Z5TMvGqPYxA+s5mUj3K/ly+6yEZ1pH/yZcQtx5EZ/8buCK/yoVIi7ndekmJpGjbzaiqNkD8QLzaTQqLp/6C4spCLsay8yEhuBX6jzJ9G3bbcziGsrKwgnU73rZGkM0tWXnKVCm2inZqawhNPPIFPPvkE/TSisDbqiJlKv5cvGpCHLratLC8iMPY7JKxHlJ4dpaxXTCAHRNXvvA44fOl+Zl5yISNebCblYtY30XJlIRdKKXlVithePY308JWI2G+Ge+JjLC0tKUaL5lbr55eUvPoZSItjm5iYwGOPPcZmsoVGov00COWLDCVddFsKzGDR8VMkLRdhw/sI6JEB2V6DwEs2Jq3iZV6t1BHvN+LFZlI8LgMREVcWcmGWkddO+H2kHVchZjsB7/i/EfD7EYlE0O9Gks4sGXnJVSK0i5bNpHZaGpXSoJQvMpSJRByLPieWhh9WHhXY8j8HmqtXpteg8JKJSatYmVcrdcT7jXixmRSPy0BExJWFXJil4lWtgKYAyUx8EwnrUcyNvQrf/BzW1tZQKsk9KmG7Z41UvNo9qD7djs2kfGAHqXzRxbdoNIrzI7weRn75z1IZykHiJV9p2h8x89qvichriBebSZEJ9XFsXFnIBVcaXtUKStlpZCdvQdx6Gfxjv1VGbiUjSYNKDMpLGl6DAqTFcbKZbCGOoD8NWvkqFArK6NcBz5lzU4bshN9DtbwtKKG9YQ0ar71HL9835iUXM+LFZlIuZn0TLVcWcqGUg1cV5c0ANmYeRdxyDIsjT2HWO4lQKKQMJkFdtgblJQevQaHR+jjZTLbWR8RfB618Ud1Jg0NRXbo4dRoR2w1IOa7BTuRDVCsFERHtiWnQeO05eAm/MC+5oBEvNpNyMeubaLmykAulDLzKm4vY8D6sGMllx48x57YqI7dms9m+Hrm10ZkkA69GcQ/iOjaT8lEfxPJVqVSUi3LB4BICzlcQsV6HlONqFGKfCQ9wEHkJD6VFgMyrhTgC/kS82EwKCGYQQuLKQi7KovOqFlPIeR5EwnIIQccpzExbsLy8rIxGOAgD7tSfTaLzqo93kL+zmZSP/qCWLzKUuVxOmTJkceJ5xCyXIzN2k/BzUA4qL/lK1m7EzEsucsSLzaRczPomWq4s5EIpMq9KIYlN3y+QHLoAa8N3Y3bqM2UKkFQqNTAD7tSfTSLzqo910L+zmZTvDBjk8kUX5zKZDJYXZxEY/z3ilqPITJxEIWERFuQg8xIWSovAmFcLcQT8iXixmRQQzCCExJWFXJRF5VUpJLA5/zOkrIewPnwHZlyfnptLslgsyiWyhtGKykvDQ+ybpNhMyody0MsXGUq6WLe8OIeFsT8hYTmsjJ5diH8pJMxB5yUklBZBMa8W4gj4E/FiMykgmEEIiSsLuSiLyEu5I0lG0nYE647bMT35Jfx+P+LxOAbZSNKZJSIvuc5446JlM2mc1lrlxOULyny9VNcuLfrgG3sJCcuRXUMp4B1K5qXVmW9MOszLGJ21yoV4sZnUSk1OpyMFuLLoSC7TNxaNFz0jSV1b6Y5k2HEHXBM2xUjGYrGB7dpae5KIxqs2Nv68VwE2k3v1kOEbl69dSnSHkgzlgm8GfscvkRz6qtLltZgcFgoj8xIKx4HBMK8DJRJqA+LFZlIoJIMTDFcWcrEWh1cVdEdyy/8rJK2HEBm5C+6zdyTD4TAbybOnlTi85DrPzYiWzaQZqveWJ5ev8/rRoDx0Ec/vm8ai4wkkhi5U7lAWU2NAtXJ+QxM/MS8Txe8ia+bVhWgm7kK82EyaCGCQs+bKQi76YvCqorITw1bgt0jajmF95B54nZ9gYWEBZCRpHjR+7SogBi+m0Y4CbCbbUUmsbbh87eWh3qEMzE9ieeRxxC2HkZ28BcX0OFAt793YhG/MywTRe8iSefUgngm7Ei82kyYIz1nyM12ynQPmV+5njeTi75G0Hcea4x7Mus4oRjISibCRrDuhzOdVFxB/baoAm8mm0gj7A5ev/WhKpRKi0SgCc2NYHv0pYpbLkJm89ayhNPcOJfPaz0vkNcxLZDr7YyNebCb368JrDFCAKwsDRNYwC7N5lbeWsOV/VjGSIcc9mHP9l41kC75m82oRGv9UpwCbyTpBJPjK5Ws/pGq1ip2dHcVQ+uensTj2HKLWK5ChO5RKl9fS/p0MWsO8DBJao2yYl0ZCGpQM8WIzaZDYnM1eBbiy2KuH6N/M5FXeDCDneRAJy8UIDd+9x0jm83lQI4ZfexUwk9feSPjbQQqwmTxIIfF+5/LVmIlqKNVnKANjz+3eoZz4JrbX3gYq5kzXxLwa8xJ1LfMSlUzjuIgXm8nG2vBanRXgykJngTVO3ixepawXuenvIzl0AVYdD2LW+eG5O5JsJJtDNotX84j4l2YKsJlspoy467l8tWZDUzPRKK+BBQ8C479D3HIUacdV2A69aYqhZF6teYn2K/MSjUjreIgXm8nWGvGvOinAlYVOwuqUrBm8aALsrPN2JC0XYGX0SXhdX2JxcVEZOZC6U/EdyeawzeDVPBr+pZUCbCZbqSPmb1y+DuZChpJ0WgrMwTf2V0StVyHtOIH8+4E0KgAAIABJREFU8p9RLaYPTkDDLZiXhmIakBTzMkBkDbMgXmwmNRSUk2pfAa4s2tdKhC0N5VUpohD7XBlenozk0sjPMO10YGlpSbnaTY0UfrVWwFBerUPhXw9QgM3kAQIJ+DOXr/ag0KA8dIdyadGPmfF/I2q9Gin7pdgK/A7VYqa9RDTYinlpIKKBSTAvA8XWICvixWZSAyE5ic4V4Mqic83M3MMwXtWS8mwNXcFOWo/AN/YSplxjWF5eVu5IUuOEXwcrYBivg0PhLQ5QgM3kAQIJ+DOXr/ahqNOGLC8vYdb5PtZs30bSchE2Zh9HeTvUfkI9bMm8ehDPhF2Zlwmi95Al8WIz2YOAvGv3CnBl0b12ZuypP6+qcqU6H/w7UvZLELddCd/Yi3BPT2J1dVXpLsVGsn3y+vNqPxbesrUCbCZb6yPir1y+OqeSTqcRDAYx6/oIa/ZbkBi6ADnPAyhvLQJVfacOYV6d8zJzD+Zlpvqd50282Ex2rhvvoYECXFloIKKBSejLq4rK9jo2/c8haTuGqP0mzI+/Bq9nWjGSyWQSlYq+jQ0DpTQkK315GXIIA5MJm0n5UHP56pwZPeOeyWSUOn3ebcHK8EOIWw4j67pD96lDmFfnvMzcg3mZqX7neRMvNpOd68Z7aKAAVxYaiGhgErrxqpZR3vBhY+bHSFgOYd1xF+ad72B2dhahUEhpfLCR7By0brw6D4X3OEABNpMHCCTgz1y+uoNChnJzc1Op231eO5ZHn0DMegXSI9cqz8lXy/nuEj5gL+Z1gECC/cy8BANyQDjEi83kASLxz/oowJWFPrrqlaoevKqlDRRinyHrvA0J6zEEHQ9h1vUxfD4f1tfXkcvl+I5kl0D14NVlKLzbAQqwmTxAIAF/5vLVPRS6OLi1tYVwOIyFOScC479HxHqt8ox8Pvgyynntn6NkXt3zMmNP5mWG6t3nSbzYTHavH+/ZgwJcWfQgngm7as2rshNFfuVvSI98DQn7VVgc+Tm8U0Pw+/2IRCJKY4On/ugetNa8uo+E9zxIATaTBykk3u9cvnpjQnX79va2Mqiaf2EOC5OvYN32TSQtF2Jj9icoZaeBqnaDrTGv3ngZvTfzMlrx3vIjXmwme9OQ9+5SAa4suhTOpN205FXKzWJz/ue7A+0M34iF8b/AOz2qTP0Ri8WURgYbyd5Aa8mrt0h474MUYDN5kELi/c7lq3cmVMcXCoXduSiXljA/9T6Whx9E0nYU2am7sBP9CNXyZu8ZAUoe9Lwmv+RQgMuXHJzUKIkXm0lVDX43VAGuLAyVu+fMtOBVrezsdmt13YmU9RDWHPdiZuIdzMy4lVH+aKAdmkOSjWTPuLjx1LuEhqXAZtIwqTXLSIv6ULNgJE+IRukmo7eysoJ5zzACI08jbr0S6dHrkV/5CyqFeM9HyLx6ltDQBJiXoXL3nBnxYjPZs4ycQDcKcGXRjWrm7dMrr2opi3zwVaVba9J2KZbHnoF78nMsLPiU0f2oMUHzkfFLGwV65aVNFJxKOwqwmWxHJbG24fKlLQ96jlIdmMc/P435sb8ibLsRKftxbHh+qAzS1sv0IcxLW156p8a89FZY2/SJF5tJbTXl1NpUgCuLNoUSZLPueVVRzq9iw3sKScvFSAxfh4Xxv2LaNY7FxUVloJ18Ps93IzXm3D0vjQPh5A5UgM3kgRIJtwGXL32QUM8UemY+EFjAzOQHWLXfpfxvpEevQyH+edfzUTIvfXjplSrz0ktZfdIlXmwm9dGWUz1AAa4sDhBIsJ+74VWtFFBIfIm042okLYcQHrkDs5Pvwev1Kt1a6flIemaGX9or0A0v7aPgFNtRgM1kOyqJtQ2XL/14ULdXeuSBur3OuMew5HgSccslSA59FVuLv0e1vN2xqWRe+vHSI2XmpYeq+qVJvNhM6qcvp9xCAa4sWogj4E8d8aqWUNmJYNP3tNIAiNuuRnDsp/C4LJifn8fa2hrS6TSo0cAvfRToiJc+IXCqbSrAZrJNoQTajMuXvjCo2ytNDUVTRM3NzcE3/irCtv9BYugiZCa+hWJqBDS1VLsv5tWuUmJsx7zE4NBuFMSLzWS7avF2mirAlYWmcuqeWFu8qhVUComzc0d+B0nbMazbvw2/8w243W4EAgFEo1Hl2RhqLPBLPwXa4qVf9pxyBwqwmexALEE25fKlPwgaiI0egYjH48p/x+y0BcHh+xGzXqGMBJ5fegHlrRWgUjwwGOZ1oERCbcC8hMJxYDDEi83kgTLxBnoowJWFHqrql+ZBvGik1lJmCpsLv0Rq+DLE7F/Hytgv4HUNYXZ29txorTs7O/x8pH6YzqV8EK9zG/IH0xVgM2k6go4D4PLVsWRd70CPQlBPlmAwiLmZaSyMv4g127eRtB5HbvpeFKIfKRcxgWrTPJhXU2mE/IF5CYmlaVDEi81kU3n4Bz0V4MpCT3W1T7s5r6rSpXV79Q1knbchab8Ma467sTDxKjzuKfj9foTDYaXLEndr1Z5LsxSb82q2B683SwE2k2Yp332+XL66166bPWmkbxrtlQbn8fsXMD91BsuOHyNi/RrSI9dgc+H/UMy4UG1yl5J5daO6efswL/O07yZn4sVmshvleJ+eFeDKomcJDU2gIa9qGYX4EDZmHkV6+ErEh2/A0tivMOP6FPNzM1heXlbmO9ze3ua7kYbS4km6DZa7p+zYTPYknyk7N6wPTYlkcDKlbq/Us4XuUq6sLMM3Ownf+N8Rst+OhO0SZJ3fQX6Z5qVM7BOFee2TROgVzEtoPPuCI15sJvfJwiuMUIArCyNU1i6Pel7lrUVs+p5BevTroHkj18ZOYW7iX5jxTCjPt9AgOzSAAt+N1I5BJynV8+pkX97WWAXYTBqrtxa5cfnSQsXu0qC7lFtbW0qPl4Dfh9npzxEY+RWi1muUZymzrjuV5/bp0Qv1xbxUJeR4Z15ycFKjJF5sJlU1+N1QBbiyMFTunjNTeVWLWeRX/ob02A1IWg8jPnwT/BN/g8dlh29+Tnmuhbal51zoSjK/zFFA5WVO7pxrJwqwmexELTG25fJlLgf6b6E5KVOpFFZXV+Gbm4Z38r8IOh5EcugCpB1XYWP2MZSyHiVQ5mUur05zZ16dKmbu9sSLzaS5DAY2d64s5EKfTESQWPpAGZY9abkIKfsxrDn/D65JBzyeaaVLKz0bubGxAR6p1Xy2XL7MZ9BuBGwm21VKnO24fInBgv5raMRXGiV8eXkJ7ulJzIy9hqj960hayFSeAI36GlvzIpPJiBE0R3GgAly+DpRIqA2IF5tJoZAMTjBcWcjAuqoMaFDKTiMzdS8SlouVJTb5IDyTH8PlcmFhYUGZC4wmmaYrxfwSQwEuX2JwaCcKNpPtqCTWNly+xOJBj1PQs5R0QdPn82HKNQH/6K8Rs12N5NCFiNmuxebqu6CeNajytFRi0dsfDZev/ZqIvIZ4sZkUmVAfx8aVhdhwq6UcShtzyih5NNVHdOgYwo7bsOA8jempCWW6j1AohFgspjy/wl1axeLJ5UssHq2iYTPZSh0xf+PyJSYXGuyN5qWk/6a52Rl4Jz/GiuNHiFqvRmLoQmRdtyvPU1Z2okC1JOZBcFTKwH18J1meE4HNpDys+i5S/jMWE2mlmAbdidzy/wap4cuRsF6CiOO7mPry/zA6/BlmZnZHaaVuRdlsFjQYAr/EU4DLl3hMmkXEZrKZMuKu5/IlLhu6sEmPW9B/1NLSEmZm3HDZXoX/izuVQXroTmVu+nsoRD9GOR8EmkwnIu4R9n9kXL7kYky8+M6kXMz6JlquLMRCWSmmUEw5sOV/Thm8IGmlO5G3Y2n815id+hx2ux1TU1NKNyK6YkhDtPNLXAW4fInLpj4yNpP1ioj/ncuX+IzosQu64ElzU1IZG3UMwTf5OlaGH0DUdq3yTGXOfT921t9FeWuJTaVASLl8CQSjjVCIF5vJNoTiTbRXgCsL7TXtOMVqBdTdpxD7FJsLvzo7zcdxhEfuQmDst5id+gRerxd+vx8ej0cZqZXnjOxYZVN24PJliuxdZcpmsivZTN2Jy5ep8redOd2lpAufi4uLmJubU6atmvVOwjfxGpaHH1aepUzZjiHnfgDboTdR3gywqWxbXf025PKln7Z6pEy82EzqoSyneaACXFkcKJGOG1RR2Y5gZ/1tbMw8ivTotUjajiMychf8Y3/CjOtjxUQGAgFl2HUafp2eQaF3fsmhAJcvOThRlGwm5WGlRsrlS1VCjnd6tp+6vVKvGvovowukM55xzI2/jmXHY4jZaI7Ky5Cbugf5pReVRz14oB7z2HL5Mk/7bnImXmwmu1GO9+lZAa4sepawqwTKW4vYXn0NWedtu91Z7ZchPP4QFiZehtf5CWa8buUqbjAYVMwj3Ymk5yKZV1dym7YT8zJN+o4zZjPZsWSm78Dly3QEHQWg8qKpROhOJY38SvNTBgJ+zHnHMDv+TyyN/Bwx+9eRsl+CzPhJbMw9gULCjmqFH+noSGwNNlZ5aZAUJ2GAAsSLzaQBQnMW+xXgymK/JnqtqVYKKGWmsTn/FNKj1yNlP46k9SgizscxN/kvuJ1WzM54lMEK6A+WpvmgP9za+SKZl1509EmXeemjqx6pspnUQ1V90+Typa++Wqdez4v+2wqFgnLBlO5ULi0GMOuZgGfiQwRGn1VMZdJyMdKOq5XBeui5ymppQ+uwOL0mCtTzarIZrxZEAeLFZlIQGIMWBlcW+hOn6T12Ih8g67oDKdtxJC0XImU/hvDUr5Qh06ec45iZ8WJ5eRlra2vK3Uf6g200zQfz0p+XljkwLy3V1DctNpP66qtH6ly+9FBVvzSb8aL/OnWOyvX1dSwvLym9c1yTI5gf+wuijm8hOfRVpKwXIzN2A/KLz6O8vaZfoJyyokAzXiyPmAoQLzaTYrLp+6i4stABcbWsdMkpby1ja+kFpB3XKCPWJSyHEB+9BatTL8DlHIfL5VIGI1hZWVFGZ6VnIZuZSDVK5qUqIcc785KDE0XJZlIeVmqkXL5UJeR4b4cXjf5K3V/D4bAy2Nzs7Cyczkl4x9/D+sj3lGmyaK7KlPUIcu7vo5i0oVrePDtfZVUOISSJsh1ekhzKQIRJvNhMDgRq8Q6SKwuNmFRLqBbTKOdXsb3+DjY8DyE5dAGS1uOI2a9FeOIUAtPvYHpqAtPT01hYWFAGIKDBCOiPk/5A23kxr3ZUEmcb5iUOi4MiYTN5kELi/c7lSzwmrSLqhBfdqczlcsqAPdRjx+fzwe2ewozzYyyPPY2I/WbErZcpPX2oG2x+6SWUMi5UCglUy9sA2Fi2YtHOb53waic93kZfBYgXm0l9NebUmyjAlUUTYdpZXS2jUkiitDG/O63H3E+RGr4CSdtRxIevx/rwbVh1/QFzU58oBnJmZkYZEp2uuMbjceWPkv4wO3kxr07UMn9b5mU+g3YjYDPZrlLibMflSxwW7UTSDS96rnJzc1N5/IP+O2l6Efov9UyNwj/5ClYd9yNsuxEJ2+VIWQ8j53kA26uvo5ieRGV7jY1lO2CabNMNryZJ8WoDFCBebCYNEJqz2K8AVxb7NTloTaUQRykzhZ3I+9hc+D9kJk7uPgs5fC3WHbcjOP4UAtNvwzs9qkztQVdUqSurehdya2trz6A6B+VX+zvzqlVD/M/MS3xGaoRsJlUl5Hnn8iUPK4q0F15kKmlUc5pWhKYYoZHO6b+V5mCedX2IxYk/IWj/HiL2byhdYdOOq7DhPYV88O8oJodRzgfPdoWVSzMzo+2Fl5lxD2rexIvN5KDSN/m4ubJoA0C1hMpOBMXUiHLFc3PuSWQmb1GGLk8OX4PI2PewMvYUAs5XMDv1JbxeD+bn55UrqNQ9h0Zl3djYUEZmbTSoThsRnNuEeZ2TQooPzEsKTEqQbCblYaVGyuVLVUKOdy140X8oPRZCdytpnAEasIfuVtJ/Ls1ZOe96B4Gx3yLoeAhRxzeRtB5GevTryHl+iPzSC9iJfIjy5iJPNdLGKaMFrzay4U00UoB4sZnUSExOpjMFuLJorBdN40F/OIXoR9jy/wY5z0PIjN+MlPUQUvbLERu/F8sTv4Zv4nXMTX2GGe+U8mcWCASUK6bUjTWbzSpXUqkra68mUo2SealKyPHOvOTgRFGymZSHlRoply9VCTneteZFcy/T9Fl0sZbS3p2zMoD5uVnMuh2Yc76LhdE/IjjyMOKOm5URYZVpRqa+h03f09gO/RPFjAvV8pYcAhocpda8DA5/4LIjXmwmBw67GAfMlcV5DvTQfjE1qnSL2Zj5EbKTtyI98jVlOPKU41rEJh/G4sSLmB3/F2Zcn8HrcZ67A0ndWCORiGIg6c+NDGTt/JDnc+ntE/PqTT+j92ZeRivefX5sJrvXzqw9uXyZpXx3+erFS51ahP571UF7qBvs7h3LWcxMD2Nm8n3Mjf4FK6M/QXzkpHLHMjV8OTLj30Bu6h5s+Z9DIf4lKtvr3R1cH+6lF68+lEqIQyJebCaFQDF4QQx0ZVEporwZwA6Nvjr3U+XOY9pxYvf5R+sRpEZvRsT5E+Uhf8/kR5h2WuH1TCnPaSwtLSl3IKmLDY3Gms/ndTOQtWflQPOqFUKSz8xLElB8Z1IeUDWRcvmqEUOCj0bwImOp3rGk5yvpIi/dsaR5nH3zc/C6x+Ce/Aze8X9jafxZxEa+u2ssqTus4yplHsvc9PeQX35JebSlWsxIoKw+IRrBS5/IBzNV4sVmcjDZm37Ug1VZVJWpO3aiH2Nz/udIj96AlO0IktaLlXkgk0NfQXLidqy7X8D89EdwTTqU+SA97t2pPOhKZygUUua/Ug0k3X3UqgtrOyfDYPFqRxGxt2FeYvOpjY7vTNaqIcdnLl9ycFKjNJoX/TfTQs9YkrGk0WDpP1wdvMfjdsHlHMXUxJfwTbyKyMQpJO1XK91hk5aLlNFh6e6lYi6Dr6CUmwGqFfVw+v7daF59L6jOB0i82EzqLDIn31iBvqssqKKvFpWH66vlPMqbfmyvvQUaNCc9cs3ZP4kLkbRcjITlMBKjJxGbfgZLnrfhdE7A6XTC5XIpQ49TFxn646G7j3R1k/6MaDQ5M199x8tMMQ3Im3kZILJGWbCZ1EhIA5Ph8mWg2BpkJQKvQqFwriss/berz1nOzs4q//1O5yS8E2cQdP0JsfH7ELddiYTlEMhcKnNHD31F6RabX/mrcueyUkwp04/QOAuoljVQSZwkROAljhriR0K82EyKz6kvI5S6sqgUUC1tKnM9VrbDKG/4UIiewdbiH5FzP4A0zflIfwDWY8ocVDHbNYg6bkXE+VME3W9gZtqq/HlMTU3tmcKDrl6SeVTngqQ/HyPvPrY60aTm1erA+vQ35iUPWDaT8rBSI+XypSohx7tIvNQ7ljQqLI24TlN30f8+jX9AU454PB5Q22DaOQKf612sOn+D8MjdiFivRcx6pTL9CF2Upt5NmYlvYXPuCWyv/QuljTmlB1RlJwrqIquYTFTlAFQXpUi86kLjrw0UIF5sJhsIw6v0V0CWyoIGx6kWUyhvraCUm1UmJKZnHbcWn8fGzKPIjJ/cvetoPYqk/SrEh29A2P4trI0+iDXXc1hxv4F5z5Dy5+B2u5U7jzSUOD37SFcnad4qVQuaB5IG0BHxpcYoYmwc034FmNd+TURdw2ZSVDLN4+Ly1VwbEX8RmRc9Z6nOY0lxUpuApvaiNoI6nyW1HdyuMfim3sWy80WExh7Bmu0WRGw3IW7/GpK2y5RHZlLDVyDrulMZMXZn7d8oJu0oZaeVMRp2TWYWkMBgisxLxPPb7JiIF5tJsykMaP6iVRbUNbWyE1Om5SilJ5XJhnfC/8F28O/YWngWuel7kRm7CSnbUSRpGT6BxMjNCI/ciVXHgwiOP4UV11/gn35fGRqcnndUJjWenT03cA79QdAfBV2NpOk7yDyKdPex1akoGq9WsfJvvU3SzfoZqwCbSWP11iI3rg+1UNG4NGThpd61pLYBtRGorUA9lVRzubCwAOoWS20Lr3sC81MfI+A6jeXJ32PF8TBW7Xch4rgFCcf1SNouVcZloMF9sq7bsTH7E2wFfoed8HsoxD5TRpAvby6gnA+hWtoQ6plMWXgZdwaLnRPxYjMpNqO+jc6syqJSiIO6phYzTuWqnWIYV1/HVuC32Jh7Ajn3D5CZOInM6HW7dxztlyI5cgPiY3ciPHY/VkYex+LYb7Do/Cv8U29jzm2F1+1SKve5uTnFONKcj9Rlhe480h8BDZpDw4ar5pGuRMr2MouXbDqJEi/zEoXEwXGwmTxYI9G24PIlGpHW8cjKiwbaowvONGo7zWlJbQk6FnokhtoY1Nagu5fU9iCDOeMehm/6DPzONxAY/yMWR36GoOMUwiN37U5L4tht16TslyIzdqNykXzD+wi2/L9WRpGlXleF2CdK+4jGfVDuZpbzrcXV4VdZeekghRRJEi82k1Kg6r8g9awsqAIsby0pV94KsU+VCYLzS89jc+GX2PCeQs7zIDKTtyAz/j+7zzdaDyFpO4bUyHVIjN+B6MQphCaehG/kD1gY/xt8zn9ifuojzLktmPE4z3VV9fv9ynxSNPQ3PUxPzz6kUqlzxpHmnqLR3GQ0j/VnnJ686vPi770rwLx619CoFNhMGqW0dvlw+dJOSyNS6hdeZC6pTUFtCzKYdJGa2hzU44kG7aO2CA3gR20TepxmZsaNGfcI5qY+wbzzHfgmT8M3+gcEHE8jNP44YmN3KoMBJu00zsMFSNkvQ3rkWqV9lJ26GxueHyoX2bf8v0E++Ap2wu+jkLAoj/yU80FlwEE9+PULLz20ETFN4sVmUkQyAxBT15VFtaL0/y9vzKGQsGEn8gHyKy8jv/jHXaPo/oHSpSM7eavSLZUqxvTw5cpQ28mhryI1fAKpsW8g7nxYGRBnZfL3imGcHX8Ts5PvYsb5MWamLJhxj56720hdS6iCpoqargZSpU0PzKvGkSp1unqoGkdRBs3R8jTqmpeWQXBabSvAvNqWyvQN2UyajqDjALh8dSyZqTv0Ky9qa9DFamp7qHcw6w0mtVno+UtaqC1DdzFnvVOYmXZgxvUJZiY/wOzEW5gdewX+0d9idfxniEz8ULmwnhq98ewUZhchZb8EacfVSI9erwz8k3V+R7mzSRfnN31PI7/0gjIQ0E70I5Sy7t3nNAvJrrj3K6+uxJBgJ+LFZlICUP0YYqPKopxfAZnEUnoCO+tvYzv0ptL9lOZmzHke2O1+On4z0qPXKVfPqGKjuZhSdFeR5m0c+ipozkalApz4LuKuHyEy9UsEp17EgvMf8Iy/D/fEx3BPfgq30wq3axhetxMzXo9yFY+u5qmGkeaDoruN6iA51L2EupnQg/I0SA5V4EbP9WjmedCIl5nxcN6tFWBerfUR6Vc2kyLRaC8WLl/t6STKVoPEiwwmtU2ojUJtFTKZNHIsPYNJdzDVaUmojaMazd07mWdNpnsMbpcN7skvdttK4//FzNibCEy+iNDkM4i6nkB87DtIjX8bSevZdpeVRpc9Cuo+S6PZp0e+prTTqCttZvxmZCf/V5ljm8af2F59TWnfFWhwoNyM0uajMStqX4PEq/a4Zf1MvNhMykpPgrgr2+soZT3KVSq6i5hffVVZtgK/QXLyXqSc9yEz/g3lipdqCMkUpqyHd6+GWS9G0kJzM9JygWIUla4YE7chNXk3EtNPIOp+DkH3K1hy/wvTk0NwTdjhmnTANTkC1+QoXM5xTE/TM40e5Yqc2jWVjCLdYVQXqmCpm2qtaaTKmCpmdZFAct1C5MpdN2l1SZh56SKrLomymdRFVl0T5fKlq7yaJ868cK4do5rN2ucwaWwHagOp7SF6pzaS2mV2bm4WM1433NNOpU21274agWtiGK4JC2Ym3sPS1KsIuX6D6PQvkaD23cR3kbQd3223DX2lpi13sdK+o3ZeynpEuRGw2/47hrTjBHJT31Pah2nPj5Ff+YvSZtxee1tpR+7e8fTr1r1W8xNvQBKk8qWLmaTb6SdPnsSJEydw9913K5OuN9K01XatflPToisrlAcdBB0Mv6q7I3LRBLZ7lhJQKe5blGkvaOqLPcsWquXzS3kzgGLScW6hB7SpO4O6KM8guu5EznUnshPfPtud9CtnK5Cv7ppAMoKKISRzuLskhg5BWSyHEbccUZbE2HeQmPwe4s6HEHE/i4j798rUGgHP+5ib/gI0qa/T6dy3TE9PK3MzqQPg0LlDdxipQqQKsnYhw0jnCl2lo6t1dNWOTCO/WivAf8at9RHtV+YlGpHm8bCZbK6NqL9w+RKVTOO4mFdjXerXqgP+0GCB1F2WdFONZm07ikaXVZ/PVAcAovkxqS3mcrnq2miTyoX+edc7WHK/hdWpFxB2/w5R52OK6VTafGfbgHHLYSQshxBX2ofn24vKvN1KO5LakmdvLJBBHfqKMj0btT+VZeqec21TpY26+hoK8c/PtV+pLVvbvt39nK9rA2/vztFZ32aulura1Wo7u1Iv48B9p/NEczOZyWQUA0mNfnq9//77ePLJJ5UHhmsVbrVdq99q0xDFTFYrO/tPxj0G7bxhqxTTOHDZDisjjtKoo/VLOb+qDC5DA8zUL8XUCArRMyhEPjy30APT9Ezhpv/ZfUt28juoXWhAmt3uoqoZpKtJFyGp3Cmku4WHd6800ZxGZ5e47QrEbFefXU4gav0aItbrdpeROxCdPIXo5O7ziWvul0BL0P0GXMP/xPTovzEzbceUy6lUQDRRr7pQpaSaxJmZGeWuIvX3p4UqMWJPFRqNakbPL9JCRlE1i7UjqNLD6tTdg67I8as7BfjPuDvdzNqLeZmlfOf5spnsXDOz9+DyZTaBzvJnXp3pVb81tZ3ULrNkNNWRZWncCLXdpbbDqE1GbTO1G63abqOL/dSWU00nte/U9h69kwmdco1iznUGzuE34Rn+K4I14BcxAAALlElEQVRTu23GtanfIjx+ti05/gNE7Deda2dGrSfOtUHjtquRsF6KhNpGtR7f7Ypb24Y9a0LJiNJCd0Nr28H0eWPmkX3t5fzSi9hZf/dc2/pcOzv+BUob8/va40r7PL+yrw2/p01fSB7oB2jalr03fM77iT3rK9u7N4zq4RnwncqX5maSTGSteSRjeOrUKeXh39pjarVdq99q01DN5FNPnkJi1aGMMEUTy3e3zKCUcSkjgBZTox29b4f+ge3VN9pYXsPm3E9bLhtzP0F24ltNF5ozSC0E+94Vs3cJkra6xX4FEsPX7llootvo8M17lrD9JNZstyJk+99zy9rog1ib/Nm5JeT6HYLTfz+3LE6/hQXPJ8ric38Oz9TouQqCKgtlsl2acNftVioRqkioQnE4HBgfH1fMIXU9pYX67xNTuqOomkPq408LXR2jE1b9U1DvLFJXDXXUVLqqxi99FFB11yd1TlVrBZiX1orqlx6bSf201StlLl96KatPusxLH13VVMls1o4yq86TSe00MpykP7Xh1PYcGVBq41FXWtV0qu1AutOptg9puhNqM9JS25asNaJe1+fwuT/ebYe6P8KS62/n2qerrj8iNPGLc+1XasvWtm/p85rtm4jYv7GnLRyzXw9qI+9pN9uv3p27s759bTu2726p2jan7rut2vPUs+8gT7AV+H0b3mLXf9BUd536l2J6HKWst0vftOu3yH+RD6OeosSz29f/q92R7kTSor6ooU/mUr1Tqa5vtV2r39T96V01k7967BokHdcro3fSxPJdLaM3KA8PqydBJ++rH1+MYBvLykcXY+a9Yy0XzztHMXz60qaL5dVLcebPlzdeXv4fnHn1uzjz2m3nl1dvw4ev3Yf/nn58z/LBGz/GO2/+fs/y1unncfqNV/DGG2+cW06fPo3a5R//+Adql3/961946623zi3vvPMO1IU4fvDBB8ry4Ycf4uOPPz63vPvuu/jPf/6DTz/9VFk+++wzfPnll8oyNDQEm82mLFSpjIyMYHR0FNTo4sUcDYiJ1Wpl/SU5B5mXOeWkm/rp3//+Nx577DG88sorSiOqmzR4H2N5c/kyVu9ez2/mZT6vsbExpS1HbTq73a6074iL2u6jNiAt1CZU24effPLJuTbjmTNnzrUnqe2otjPpXW2DUnv0n//85542KrVXa9uw9Lm2jfuP11/Cv0//Fu/843x7+L3TT+H9Nx7b02b+7xs/xIev3nG+ba22s1/5Ns789eqGbfJP/nYZ7G9c0rQ9P/Gv4/C8exTeFr5g4YMjWGnDX5AHiXy+twtwWz7GctHudDDdeqexmxT/RT5MUzP5/PPPt2UmW23X6rdGZvKhuy7Df188jk9fvrKr5ZOXr8BHf70c7z5/Jf7x26s7Xl565nq8+PTBy/NPXY9nfnxzy+Xpx27Gqftvbbrcf++tuO222xout99+O+qXO+64A3feeee+5a677kL9Qs+33nPPPXuWe++9F/fdd9+55Qc/+AHuv//+c8sDDzyABx988Nzy0EMPQV3ojrS6PPzww1CXRx55BI8++qiy/OhHP1IaUtSY4oU14HOAzwE+B/gc4HOAzwE+BwbzHKA2odo+pLYiLWrbUW1P0vsPf/jDc23N2jYofa5to1KbtbYNS23a+nYutX3r28P0vVHbmdrU9e3s/9/e2fS2TkRh+BdebtTSr9ukX7QLFpQdEuoSiQ0sipBYFMSHxJKukQCp/QVdd9efMuitONW57sSxnd70DX4sjezYTnL8nJkz552JY72u5eWff/ZpufjibG4+/9XFJ+WbBZrg+69n5ccO+uKnb9+V37/b7q1f/vhhs/z586T8/evb8s9vk0Ea6q9f3pQvz9+Wzc3N9Z6Z3NmelMN3H5Xj2WRwOZpOyt7uxiMMAelSpMK3trY6l+3t7bKo7OzslLayu7tbamVvb6/s7+8/K9PptMxms3JwcPCsHB4elmY5OjoqueiPlHI5OTkpuZyenpZczs7OCgUG1AHqAHWAOkAdoA5QB6gDH7oO5BxU2zlH1XbOYbWdc1xtN/Ngva7lzMqllVPXcm3l4LXcXPvacnodW6QLdLyP1pA26aJhdM7W1mY52P9PO02HaSjpr4833pSNjY2XFZOaWYxl3j2T+gnkvPPajsXnaq1n/ummXU2fa3pc0+CrLJqCj6n5Reubm5vHnwnqp4JtRT8BaCttP/e4u7srXYt+dlwr4kmBAXWAOkAdoA5QB6gD1AHqwP+9DtRyYe3rmk/rvLbcXLdpteX1uq2rTRfo2O3tbWe9IW2ySi2k75J9YiBdNnR5757JpnjMwlDOiUeFtJ3XdqxmpP54Rfdm6qbfIUWPh9A/VQ0peqxE1yI7FxXdyNxWatfPPghAAAIQgAAEIAABCEDAi0BbTq9ji3SBjnfVGTpviJbJ/9Y7REdJg+lallneE5P6IIlGTbOq5H92zWKy7bxFx5YxlvdCAAIQgAAEIAABCEAAAhCAgAeBZ2LSwyysgAAEIAABCEAAAhCAAAQgAAFnAohJZ+9gGwQgAAEIQAACEIAABCAAAVMCiElTx2AWBCAAAQhAAAIQgAAEIAABZwKISWfvYBsEIAABCEAAAhCAAAQgAAFTAohJU8dgFgQgAAEIQAACEIAABCAAAWcCiEln72AbBCAAAQhAAAIQgAAEIAABUwI2YvLh4aEcHx8/PZZEjyJh8SaQHyMTzyD1thjr9BxY+UrPkGXxJZDbluKi4iOLHwG1o3iU1tXVlZ+BWPREQM9S0+PO8NcTkrXZUDsjx/B3V7ONkWd4+6zpr2X6MAsxGQluCEitCRzelVA+ys8h9bYW64JAJL8E+SDit1Y8VFBXoNdCPPTzUdMv0SnTrjx9Javkm8gx8Jevn5qWRX5ITtgk4/U62lS0MS/rsKZGQHlGCMhoZ0P9ZyMmJUx0MVq0vri4YDS+5n2DfQoal5eX+MfAF31M0OyW/KZC0tuH3OueSzx8Xf7zvl2dcG5H6oQZYJtHy2+/fBeJlJ91WBQE5KPr6+vHnDByxDjG2oeA4h/tyccfXSyRv7J41Ovcp3X5jDjHQkzKGF1AXASVMtzjuc6iJH4yFL7ztBir8qjhMgEDkqsnoHjIqPzqubd9Y21ATXFRg6AkvG3kPI5FPKTf8vDHPCsU+zRAc39/T9uaB8lkv/IKif64XY0+y8QxLWZELq94qH4rT+q1vK16yEpMhjDRmiBf9ZfFTgV4+UhrLaqQ5+fnzFRaeKduRBaQebt+NntdCKhtqXOOtuZi19jtqM0WIybXp1YoBjKL7O2v3J7ytrfV47QuBmdym1IbU2HxJRD5RWiv7L++Vq9cTGbj448ltC+LEXXUGtUggerrzpc/v+Yv+aVZ6RAoL89+yCd28Re+GkL2w7yn5q/4Jg2oRYyMfaw9CDAz6eGHvlZEbkGS25fcas8PcRI5oOIks/6r9UGfb2v6S+/FZ30Irv7c8FmeuFNcHBobVy4ma8h0Mc0L0Ot8kbX3se91CChI6L47VcZY8FeQ8FpHwIiRp7xuDgh4WT5ua9SemjFx3ES8rj7aVSS7sq42yOZl9bitUb+VB63HTcP76tWWcl+Vt3Ob876KcVmn/ir7BjHp7f+af5bpwyzEZDPIx+hhrpjebhmXdZFIhdhv+m9cNNbvahH+3j6rBXlvi8dpXe54IybSZ/nWBeKer28WWUZMXETo9Y8r9uX7JNXeVFg8CUSfFXm8rFzGZxZiUhehisjok2elq1kVgj98RhJVo+S5j6TK0y9hVTMW0saCjN9abSn8kztlP0vHbVEkTuGrWPPrjPWoF4jJ9fCTYiBtaz18JSubefwy4t9GTK4PfiyFAAQgAAEIQAACEIAABCAAAcQkdQACEIAABCAAAQhAAAIQgAAEehNATPZGxhsgAAEIQAACEIAABCAAAQhAADFJHYAABCAAAQhAAAIQgAAEIACB3gT+BeGjLPqNFZrcAAAAAElFTkSuQmCC;" vertex="1" parent="1">
          <mxGeometry x="320" y="540" width="585" height="347.8" as="geometry" />
        </mxCell>
        <mxCell id="TpyHItLFZVQ0e0Jz64Gf-2" value="&lt;font face=&quot;Times New Roman&quot; size=&quot;1&quot;&gt;&lt;i style=&quot;font-size: 27px&quot;&gt;x&lt;/i&gt;&lt;/font&gt;" style="text;html=1;resizable=0;autosize=1;align=center;verticalAlign=middle;points=[];fillColor=none;strokeColor=none;rounded=0;" vertex="1" parent="1">
          <mxGeometry x="602" y="886" width="30" height="20" as="geometry" />
        </mxCell>
        <mxCell id="TpyHItLFZVQ0e0Jz64Gf-3" value="&lt;span lang=&quot;EN-US&quot;&gt;&lt;font style=&quot;font-size: 27px&quot; face=&quot;Times New Roman&quot;&gt;&lt;i&gt;σ&#39;&lt;/i&gt;(&lt;i&gt;x&lt;/i&gt;)&lt;/font&gt;&lt;br&gt;&lt;/span&gt;" style="text;html=1;resizable=0;autosize=1;align=center;verticalAlign=middle;points=[];fillColor=none;strokeColor=none;rounded=0;" vertex="1" parent="1">
          <mxGeometry x="250" y="703.9" width="60" height="20" as="geometry" />
        </mxCell>
      </root>
    </mxGraphModel>
  </diagram>
</mxfile>
